<svg width="313" height="59" viewBox="0 0 313 59" fill="none" xmlns="http://www.w3.org/2000/svg">
<path opacity="0.1" fill-rule="evenodd" clip-rule="evenodd" d="M2 31.9016C2 31.9016 13.9046 29.9522 27.4394 34.6355C53.1819 43.5429 54.6504 27.2313 64.196 19.3662C72.9291 12.1705 80.1618 16.5609 89.8855 25.3607C97.0571 31.8509 107.509 42.7454 118.333 40.9915C128.227 39.3883 135.241 26.6105 148.956 23.3609C159.825 20.7854 168.659 27.861 181.175 25.3607C198.154 21.9687 200.684 8.97568 212.819 8.97568C227.796 8.97568 237.177 32.1607 250.802 32.1607C264.347 32.1607 271.315 9.24078 286.132 16.1986C297.459 21.5179 304 2 304 2V59H2V31.9016Z" fill="url(#paint0_linear_1910_209)"/>
<path d="M2 41.7643C2 41.7643 13.8652 39.8237 27.3552 44.4855C53.0124 53.352 54.4761 37.1154 63.99 29.2864C72.6942 22.1238 79.903 26.494 89.5945 35.2533C96.7424 41.7137 107.16 52.5582 117.948 50.8123C127.809 49.2165 134.8 36.4974 148.469 33.2628C159.303 30.6991 168.107 37.7422 180.582 35.2533C197.505 31.877 200.026 18.9436 212.121 18.9436C227.049 18.9436 236.398 42.0221 249.978 42.0221C263.478 42.0221 270.424 19.2075 285.191 26.1333C296.481 31.4282 303 12 303 12" stroke="black" stroke-width="3" stroke-linecap="round" stroke-linejoin="round"/>
<g filter="url(#filter0_d_1910_209)">
<rect x="297" y="2" width="12" height="12" rx="6" fill="#090909"/>
<rect x="298" y="3" width="10" height="10" rx="5" stroke="white" stroke-width="2"/>
</g>
<defs>
<filter id="filter0_d_1910_209" x="293" y="0" width="20" height="20" filterUnits="userSpaceOnUse" color-interpolation-filters="sRGB">
<feFlood flood-opacity="0" result="BackgroundImageFix"/>
<feColorMatrix in="SourceAlpha" type="matrix" values="0 0 0 0 0 0 0 0 0 0 0 0 0 0 0 0 0 0 127 0" result="hardAlpha"/>
<feOffset dy="2"/>
<feGaussianBlur stdDeviation="2"/>
<feColorMatrix type="matrix" values="0 0 0 0 0.268354 0 0 0 0 0.268354 0 0 0 0 0.31049 0 0 0 0.15 0"/>
<feBlend mode="normal" in2="BackgroundImageFix" result="effect1_dropShadow_1910_209"/>
<feBlend mode="normal" in="SourceGraphic" in2="effect1_dropShadow_1910_209" result="shape"/>
</filter>
<linearGradient id="paint0_linear_1910_209" x1="149.893" y1="10.4098" x2="150.596" y2="59.0078" gradientUnits="userSpaceOnUse">
<stop stop-color="#384AB5"/>
<stop offset="1" stop-color="white"/>
</linearGradient>
</defs>
</svg>
