<svg width="20" height="20" viewBox="0 0 20 20" fill="none" xmlns="http://www.w3.org/2000/svg">
<path fill-rule="evenodd" clip-rule="evenodd" d="M7.07921 4.83317C7.0374 5.25428 6.6821 5.58317 6.24999 5.58317C5.81788 5.58317 5.46258 5.25428 5.42077 4.83317H3.33332V6.1665H16.6667V4.83317H15.3292C15.2874 5.25428 14.9321 5.58317 14.5 5.58317C14.0679 5.58317 13.7126 5.25428 13.6708 4.83317H7.07921ZM5.41666 3.1665V2.49984C5.41666 2.0396 5.78975 1.6665 6.24999 1.6665C6.71023 1.6665 7.08332 2.0396 7.08332 2.49984V3.1665H13.6667V2.49984C13.6667 2.0396 14.0398 1.6665 14.5 1.6665C14.9602 1.6665 15.3333 2.0396 15.3333 2.49984V3.1665H16.75C17.6244 3.1665 18.3333 3.87539 18.3333 4.74984V15.8332C18.3333 17.2139 17.214 18.3332 15.8333 18.3332H4.16666C2.78594 18.3332 1.66666 17.2139 1.66666 15.8332V4.74984C1.66666 3.87539 2.37554 3.1665 3.24999 3.1665H5.41666ZM16.6667 7.83317H3.33332V15.8332C3.33332 16.2934 3.70642 16.6665 4.16666 16.6665H15.8333C16.2936 16.6665 16.6667 16.2934 16.6667 15.8332V7.83317ZM5.49999 10.8332C5.03975 10.8332 4.66666 10.4601 4.66666 9.99984C4.66666 9.5396 5.03975 9.1665 5.49999 9.1665H8.49999C8.96023 9.1665 9.33332 9.5396 9.33332 9.99984C9.33332 10.4601 8.96023 10.8332 8.49999 10.8332H5.49999ZM5.49999 13.8332C5.03975 13.8332 4.66666 13.4601 4.66666 12.9998C4.66666 12.5396 5.03975 12.1665 5.49999 12.1665H11.5C11.9602 12.1665 12.3333 12.5396 12.3333 12.9998C12.3333 13.4601 11.9602 13.8332 11.5 13.8332H5.49999Z" fill="#0E854E"/>
</svg>
