<svg width="20" height="20" viewBox="0 0 20 20" fill="none" xmlns="http://www.w3.org/2000/svg">
<path fill-rule="evenodd" clip-rule="evenodd" d="M16.4394 4.71023C17.6228 6.14912 18.3333 7.99161 18.3333 10.0001C18.3333 14.6024 14.6024 18.3334 10 18.3334C5.39763 18.3334 1.66667 14.6024 1.66667 10.0001C1.66667 5.39768 5.39763 1.66672 10 1.66672C11.9937 1.66672 13.8238 2.36683 15.258 3.5346L15.717 3.07559L15.9352 1.91361C16.0201 1.46127 16.4556 1.16342 16.908 1.24835C17.3603 1.33327 17.6582 1.7688 17.5732 2.22113L17.5257 2.47441L17.779 2.42686C18.2313 2.34194 18.6668 2.63978 18.7518 3.09212C18.8367 3.54445 18.5388 3.97999 18.0865 4.06491L16.8532 4.29644L16.4394 4.71023ZM14.0718 4.72088C12.9455 3.85095 11.5332 3.33339 10 3.33339C6.31811 3.33339 3.33334 6.31815 3.33334 10.0001C3.33334 13.682 6.31811 16.6667 10 16.6667C13.6819 16.6667 16.6667 13.682 16.6667 10.0001C16.6667 8.45206 16.1391 7.0273 15.2539 5.89577L14.0636 7.08608C14.6529 7.90652 15 8.91276 15 10.0001C15 12.7615 12.7614 15.0001 10 15.0001C7.23858 15.0001 5.00001 12.7615 5.00001 10.0001C5.00001 7.23863 7.23858 5.00005 10 5.00005C11.0724 5.00005 12.066 5.33768 12.8802 5.91243L14.0718 4.72088ZM11.6751 7.11754C11.1829 6.83091 10.6106 6.66672 10 6.66672C8.15906 6.66672 6.66667 8.1591 6.66667 10.0001C6.66667 11.841 8.15906 13.3334 10 13.3334C11.841 13.3334 13.3333 11.841 13.3333 10.0001C13.3333 9.37434 13.1609 8.78889 12.861 8.28862L11.604 9.54567C11.6448 9.69012 11.6667 9.84253 11.6667 10.0001C11.6667 10.9205 10.9205 11.6667 10 11.6667C9.07953 11.6667 8.33334 10.9205 8.33334 10.0001C8.33334 9.07958 9.07953 8.33339 10 8.33339C10.141 8.33339 10.278 8.3509 10.4088 8.38388L11.6751 7.11754Z" fill="#FFD300"/>
</svg>
