<svg width="309" height="300" viewBox="0 0 309 300" fill="none" xmlns="http://www.w3.org/2000/svg">
<path d="M33.0102 26.1643C27.0311 28.6183 22.2702 33.3413 19.7718 39.2975C17.2735 45.2537 17.2416 51.9568 19.6832 57.9365L34.8204 94.851L41.5751 92.0774L26.4446 55.1561C24.732 50.9768 24.7512 46.289 26.498 42.1239C28.2449 37.9588 31.5763 34.6577 35.7593 32.9466C39.9424 31.2355 44.6344 31.2547 48.8033 33C52.9722 34.7452 56.2764 38.0736 57.989 42.2528L64.7775 39.4724C62.3226 33.5059 57.6006 28.7549 51.6461 26.2604C45.6916 23.7659 38.9901 23.7314 33.0102 26.1643Z" fill="#0E854E"/>
<g opacity="0.3">
<path d="M33.0102 26.1643C27.0311 28.6183 22.2702 33.3413 19.7718 39.2975C17.2735 45.2537 17.2416 51.9568 19.6832 57.9365L34.8204 94.851L41.5751 92.0774L26.4446 55.1561C24.732 50.9768 24.7512 46.289 26.498 42.1239C28.2449 37.9588 31.5763 34.6577 35.7593 32.9466C39.9424 31.2355 44.6344 31.2547 48.8033 33C52.9722 34.7452 56.2764 38.0736 57.989 42.2528L64.7775 39.4724C62.3226 33.5059 57.6006 28.7549 51.6461 26.2604C45.6916 23.7659 38.9901 23.7314 33.0102 26.1643Z" fill="black"/>
</g>
<path d="M77.432 58.2401L23.881 80.1503C21.8753 80.971 20.9151 83.2607 21.7365 85.2647L34.7405 116.99C35.5619 118.994 37.8537 119.953 39.8595 119.133L93.4105 97.2224C95.4163 96.4018 96.3764 94.112 95.555 92.1081L82.551 60.3827C81.7296 58.3787 79.4378 57.4195 77.432 58.2401Z" fill="#0E854E"/>
<g opacity="0.5">
<path d="M61.6365 81.5292C61.2527 80.5822 60.6118 79.7611 59.786 79.1584C58.9603 78.5557 57.9825 78.1953 56.9629 78.1178C55.9432 78.0404 54.9221 78.2489 54.0147 78.7199C53.1072 79.191 52.3495 79.9058 51.8267 80.7839C51.3039 81.662 51.037 82.6685 51.0559 83.69C51.0748 84.7115 51.3788 85.7075 51.9336 86.5657C52.4885 87.4239 53.2722 88.1102 54.1965 88.5474C55.1207 88.9847 56.1488 89.1554 57.1649 89.0403L60.2721 96.6324L63.0482 95.4987L59.9343 87.9065C60.8749 87.1741 61.5503 86.1547 61.8575 85.0035C62.1648 83.8523 62.0872 82.6323 61.6365 81.5292Z" fill="black"/>
</g>
<path d="M37.9477 115.596C37.8058 115.657 35.0296 109.198 31.7469 101.181C28.4641 93.1639 25.9041 86.6178 26.0459 86.5571C26.1878 86.4963 28.9639 92.9547 32.2467 100.979C35.5295 109.003 38.0828 115.542 37.9477 115.596Z" fill="#FAFAFA"/>
<path d="M55.2397 91.7536C54.9927 91.7707 54.7447 91.7386 54.5102 91.6591C53.8547 91.4848 53.2286 91.2142 52.6527 90.8561C51.6751 90.2803 50.8373 89.4955 50.1993 88.5579C49.5613 87.6203 49.139 86.5532 48.9627 85.4332C48.7864 84.3132 48.8605 83.1681 49.1797 82.0802C49.4988 80.9922 50.0551 79.9883 50.8087 79.1406C51.2403 78.6129 51.7534 78.1573 52.3285 77.7909C52.7337 77.5412 53.0039 77.4467 53.0039 77.4737C52.3265 78.0523 51.6942 78.6818 51.1126 79.3565C50.4433 80.1842 49.955 81.1428 49.6793 82.1706C49.4037 83.1984 49.3468 84.2726 49.5122 85.3237C49.6777 86.3748 50.0619 87.3796 50.6401 88.2733C51.2182 89.1669 51.9775 89.9295 52.8688 90.5119C53.6268 90.9847 54.4194 91.3998 55.2397 91.7536Z" fill="#FAFAFA"/>
<path d="M12.1314 98.4075L12.4624 97.4492L13.0906 98.2456C13.5958 98.8728 14.2712 99.3414 15.0359 99.5953L15.9951 99.9259L15.198 100.554C14.5738 101.062 14.1056 101.735 13.8471 102.497L13.5229 103.476L12.8474 102.686C12.3378 102.061 11.6608 101.593 10.8953 101.336L9.94287 101.006L10.7332 100.378C11.379 99.869 11.8644 99.1849 12.1314 98.4075Z" fill="#0E854E"/>
<path d="M44.1892 60.7575L44.3783 60.2041L44.743 60.663C45.0346 61.0403 45.4285 61.3261 45.8778 61.4863L46.4317 61.6753L45.9724 62.0465C45.6016 62.3371 45.3225 62.7284 45.1686 63.1735L44.9795 63.7269L44.5944 63.241C44.305 62.8704 43.9126 62.5934 43.4664 62.4446L42.9058 62.2489L43.3718 61.8845C43.7462 61.5943 44.0298 61.2033 44.1892 60.7575Z" fill="#0E854E"/>
<path d="M5.64005 65.4474L6.19393 63.8345L7.25442 65.1842C8.09922 66.2518 9.23437 67.0531 10.5237 67.4922L12.1313 68.0456L10.7804 69.1051C9.71184 69.9506 8.90789 71.084 8.4635 72.3714L7.90962 73.9775L6.85589 72.6278C6.01148 71.5583 4.87642 70.7547 3.58662 70.3131L1.979 69.7597L3.32994 68.7069C4.39465 67.8621 5.19605 66.7313 5.64005 65.4474Z" fill="#0E854E"/>
<path d="M191.887 299.642L92.1812 299.581C86.4223 299.578 80.9004 297.29 76.8294 293.22C72.7585 289.15 70.4717 283.632 70.4717 277.878L70.519 28.1346C70.5199 25.2839 71.0828 22.4613 72.1758 19.828C73.2687 17.1948 74.8702 14.8024 76.8887 12.7876C78.9072 10.7728 81.3032 9.17502 83.9399 8.08554C86.5766 6.99606 89.4023 6.43622 92.2556 6.43799L191.962 6.49198C197.72 6.49556 203.242 8.78373 207.313 12.8535C211.384 16.9233 213.671 22.4416 213.671 28.1953L213.624 277.946C213.623 280.796 213.06 283.619 211.967 286.252C210.874 288.885 209.273 291.278 207.254 293.293C205.236 295.307 202.84 296.905 200.203 297.995C197.566 299.084 194.74 299.644 191.887 299.642Z" fill="#263238"/>
<path d="M191.847 15.3256H172.528C171.898 15.3388 171.276 15.476 170.699 15.7295C170.122 15.9829 169.6 16.3476 169.164 16.8027C168.728 17.2578 168.386 17.7943 168.158 18.3816C167.93 18.9688 167.82 19.5953 167.834 20.2251V23.6938C167.861 24.9654 167.382 26.1956 166.502 27.1143C165.621 28.033 164.412 28.565 163.139 28.5933H125.462C124.828 28.5828 124.203 28.4474 123.623 28.1948C123.042 27.9423 122.517 27.5776 122.077 27.1217C121.638 26.6659 121.293 26.1278 121.062 25.5383C120.832 24.9489 120.72 24.3198 120.733 23.6871V20.1914C120.748 19.5612 120.638 18.9344 120.41 18.3468C120.181 17.7591 119.84 17.2221 119.404 16.7665C118.968 16.3109 118.446 15.9456 117.869 15.6914C117.291 15.4372 116.67 15.2992 116.039 15.2852H92.3502C88.3211 15.2834 84.4557 16.878 81.6016 19.7194C78.7475 22.5607 77.1377 26.4169 77.1252 30.4424L77.0779 274.214C77.0779 278.243 78.6796 282.108 81.5309 284.958C84.3821 287.807 88.2495 289.409 92.2827 289.411L191.793 289.472C193.791 289.474 195.77 289.082 197.617 288.319C199.464 287.556 201.142 286.437 202.555 285.025C203.969 283.614 205.09 281.937 205.854 280.093C206.619 278.248 207.012 276.271 207.011 274.274L207.058 30.5099C207.055 26.4815 205.451 22.6194 202.598 19.7722C199.746 16.925 195.879 15.3256 191.847 15.3256Z" fill="white"/>
<path d="M132.831 270.86C132.835 271.238 132.727 271.608 132.52 271.924C132.313 272.24 132.017 272.488 131.67 272.637C131.322 272.785 130.938 272.827 130.566 272.757C130.195 272.687 129.852 272.509 129.582 272.245C129.312 271.98 129.126 271.642 129.049 271.272C128.971 270.903 129.005 270.518 129.146 270.168C129.287 269.817 129.528 269.517 129.841 269.303C130.153 269.09 130.521 268.974 130.899 268.97C131.405 268.967 131.893 269.163 132.255 269.517C132.617 269.871 132.824 270.354 132.831 270.86Z" fill="#263238"/>
<path d="M143.53 270.772C143.534 271.15 143.426 271.521 143.219 271.837C143.012 272.153 142.716 272.401 142.367 272.549C142.019 272.697 141.635 272.739 141.263 272.669C140.892 272.598 140.549 272.419 140.279 272.155C140.009 271.89 139.824 271.551 139.747 271.181C139.67 270.81 139.705 270.426 139.847 270.075C139.989 269.725 140.232 269.425 140.545 269.212C140.858 269 141.227 268.885 141.605 268.882C142.111 268.879 142.598 269.076 142.959 269.43C143.319 269.784 143.525 270.267 143.53 270.772Z" fill="#263238"/>
<path d="M154.237 270.691C154.241 271.069 154.132 271.44 153.925 271.756C153.718 272.072 153.422 272.32 153.074 272.468C152.726 272.616 152.341 272.658 151.97 272.588C151.598 272.517 151.255 272.338 150.985 272.073C150.716 271.809 150.53 271.47 150.454 271.099C150.377 270.729 150.411 270.345 150.553 269.994C150.695 269.644 150.938 269.344 151.251 269.131C151.564 268.919 151.933 268.804 152.312 268.801C152.817 268.798 153.304 268.995 153.665 269.349C154.026 269.703 154.231 270.186 154.237 270.691Z" fill="#263238"/>
<path d="M192.441 39.9446C192.441 39.9986 189.922 40.0661 186.821 40.0931C183.721 40.1201 181.208 40.0931 181.208 40.0323C181.208 39.9716 183.741 39.8906 186.821 39.8906C189.901 39.8906 192.434 39.8906 192.441 39.9446Z" fill="#263238"/>
<path d="M192.461 42.8129C192.461 42.8736 189.949 42.9411 186.848 42.9681C183.748 42.9951 181.228 42.9681 181.228 42.9074C181.228 42.8466 183.741 42.7792 186.848 42.7522C189.955 42.7252 192.461 42.7522 192.461 42.8129Z" fill="#263238"/>
<path d="M192.522 45.6808C192.522 45.7415 190.003 45.809 186.902 45.836C183.802 45.863 181.289 45.836 181.289 45.7753C181.289 45.7145 183.802 45.6538 186.902 45.6268C190.003 45.5998 192.482 45.6268 192.522 45.6808Z" fill="#263238"/>
<path d="M90.29 48.9605H90.5197H91.1952L93.5998 48.9066L93.5391 48.9673C93.5391 48.4409 93.5391 47.8605 93.5391 47.2329C93.5223 46.9002 93.5223 46.5668 93.5391 46.2341C93.5744 46.0437 93.6705 45.8699 93.813 45.7385C93.9554 45.6071 94.1365 45.5253 94.3294 45.5053C94.7144 45.5053 95.0589 45.5053 95.4776 45.5053C95.6954 45.5379 95.894 45.6481 96.0368 45.8155C96.1795 45.983 96.2569 46.1964 96.2544 46.4163C96.2544 47.2262 96.2544 48.0765 96.2544 48.9538L96.1531 48.8526H99.1792L99.0779 48.9538C99.0779 47.7391 99.0779 46.4771 99.0779 45.1881C99.0779 44.8709 99.0779 44.5133 99.0779 44.2298C99.0726 44.0909 99.0306 43.9559 98.9563 43.8384C98.8619 43.7199 98.758 43.6093 98.6456 43.5077C98.1998 43.0691 97.7607 42.6304 97.2947 42.2052L96.018 40.95C95.8154 40.7408 95.606 40.5384 95.4033 40.3359C95.2007 40.1334 95.0251 39.9175 94.7684 39.8702C94.6528 39.8423 94.5324 39.8399 94.4157 39.8632C94.2991 39.8865 94.1889 39.935 94.0929 40.0052C93.9106 40.1604 93.7147 40.3764 93.5323 40.5586L92.4448 41.6519C91.7693 42.3267 91.0533 43.0016 90.5332 43.6224C90.3829 43.9802 90.3316 44.3718 90.3846 44.7562C90.3846 45.1341 90.3846 45.485 90.3846 45.8225C90.3846 46.4973 90.3846 47.0507 90.3846 47.5366C90.3846 48.0225 90.3846 48.3464 90.3846 48.6366C90.3846 48.9268 90.3846 49.028 90.3846 49.028C90.3846 49.028 90.3846 48.9066 90.3846 48.6636C90.3846 48.4207 90.3846 47.9888 90.3846 47.5838C90.3846 47.1789 90.3846 46.5176 90.3508 45.8562C90.3508 45.512 90.3508 45.1814 90.3508 44.7697C90.3508 44.574 90.3508 44.3783 90.3508 44.1758C90.35 43.9553 90.4083 43.7386 90.5197 43.5482C91.0803 42.8734 91.7491 42.2592 92.438 41.5236L93.512 40.4236C93.7079 40.2347 93.87 40.039 94.0929 39.8433C94.2161 39.7514 94.3584 39.6885 94.5093 39.6592C94.6602 39.63 94.8157 39.6353 94.9643 39.6745C95.2461 39.7756 95.4941 39.9532 95.6803 40.1874L96.3017 40.7948L97.5851 42.05L98.936 43.3525C99.0603 43.4626 99.1734 43.5847 99.2738 43.7169C99.3685 43.8669 99.422 44.0391 99.4291 44.2163C99.4291 44.5402 99.4291 44.8912 99.4291 45.1814C99.4291 46.4703 99.4291 47.7323 99.4291 48.947V49.0483H99.3211H96.295H96.2004V48.947C96.2004 48.0697 96.2004 47.2262 96.2004 46.4163C96.203 46.238 96.1419 46.0646 96.028 45.9273C95.9141 45.79 95.7548 45.6978 95.579 45.6673C95.2277 45.6673 94.8157 45.6673 94.478 45.6673C94.3162 45.6799 94.1629 45.7446 94.0411 45.8517C93.9193 45.9588 93.8356 46.1024 93.8025 46.2611C93.8025 46.5716 93.8025 46.936 93.8025 47.2262C93.8025 47.8538 93.8025 48.4342 93.8025 48.9673V49.028H93.7417H91.3032H90.5265C90.4454 49.0144 90.3661 48.9917 90.29 48.9605Z" fill="#263238"/>
<path d="M198.601 122.223C198.601 122.317 173.609 122.398 142.747 122.398C111.885 122.398 86.8789 122.317 86.8789 122.223C86.8789 122.128 111.871 122.047 142.747 122.047C173.623 122.047 198.601 122.108 198.601 122.223Z" fill="#E0E0E0"/>
<path d="M196.001 224.956C196.001 225.057 171.009 225.132 140.14 225.132C109.271 225.132 84.2783 225.057 84.2783 224.956C84.2783 224.855 109.271 224.781 140.14 224.781C171.009 224.781 196.001 224.862 196.001 224.956Z" fill="#E0E0E0"/>
<path d="M170.732 232.676C170.732 232.771 156.837 232.852 139.7 232.852C122.564 232.852 108.669 232.771 108.669 232.676C108.669 232.582 122.557 232.501 139.7 232.501C156.844 232.501 170.732 232.575 170.732 232.676Z" fill="#E0E0E0"/>
<path d="M106.809 152.84L108.923 153.98L107.971 155.573L105.85 154.311V156.687H104.019V154.318L101.885 155.6L101 153.987L103.148 152.84L101.034 151.672L101.966 150.087L104.1 151.362V149H105.85L105.809 151.362L107.944 150.087L108.896 151.672L106.809 152.84Z" fill="#0E854E"/>
<path d="M130.423 152.84L132.538 153.981L131.585 155.573L129.451 154.311L129.491 156.687H127.667V154.318L125.526 155.6L124.614 153.987L126.735 152.847L124.614 151.679L125.546 150.093L127.688 151.369V149.007H129.491L129.451 151.369L131.585 150.093L132.538 151.679L130.423 152.84Z" fill="#0E854E"/>
<path d="M153.301 152.84L155.416 153.981L154.484 155.573L152.349 154.311L152.39 156.66H150.566V154.291L148.431 155.573L147.492 153.987L149.613 152.847L147.492 151.679L148.425 150.093L150.559 151.369V149.007H152.383L152.342 151.369L154.477 150.093L155.429 151.679L153.301 152.84Z" fill="#0E854E"/>
<path d="M175.997 152.84L178.125 153.987L177.173 155.58L175.038 154.318L175.072 156.666H173.248V154.298L171.114 155.58L170.195 153.987L172.309 152.847L170.195 151.679L171.127 150.093L173.262 151.369V149.007H175.085L175.052 151.369L177.186 150.093L178.139 151.679L175.997 152.84Z" fill="#0E854E"/>
<path d="M110.036 166.696H99.8026C99.1729 166.699 98.5488 166.577 97.9662 166.338C97.3837 166.099 96.8541 165.748 96.4079 165.304C95.9616 164.86 95.6076 164.332 95.366 163.751C95.1244 163.17 95 162.547 95 161.918V143.764C95.0018 142.5 95.5057 141.288 96.4011 140.395C97.2965 139.502 98.5102 139 99.7756 139H110.009C111.274 139 112.488 139.502 113.383 140.395C114.279 141.288 114.783 142.5 114.784 143.764V161.918C114.785 163.179 114.285 164.39 113.396 165.285C112.506 166.18 111.298 166.687 110.036 166.696ZM99.8026 139.344C98.6268 139.344 97.499 139.81 96.6669 140.64C95.8349 141.47 95.3665 142.596 95.3647 143.771V161.918C95.3665 163.093 95.8347 164.22 96.6665 165.051C97.4984 165.882 98.6261 166.35 99.8026 166.352H110.036C111.213 166.352 112.342 165.885 113.174 165.053C114.006 164.222 114.474 163.094 114.474 161.918V143.764C114.472 142.59 114.004 141.464 113.172 140.634C112.34 139.804 111.212 139.337 110.036 139.337L99.8026 139.344Z" fill="#263238"/>
<path d="M133.157 166.696H122.917C121.651 166.694 120.438 166.191 119.542 165.297C118.647 164.402 118.143 163.19 118.142 161.925V143.771C118.143 142.507 118.647 141.295 119.543 140.402C120.438 139.509 121.652 139.007 122.917 139.007H133.157C134.422 139.009 135.633 139.511 136.527 140.404C137.421 141.297 137.924 142.508 137.926 143.771V161.918C137.927 162.545 137.804 163.165 137.565 163.745C137.326 164.324 136.975 164.85 136.532 165.294C136.089 165.738 135.563 166.09 134.984 166.33C134.405 166.571 133.784 166.695 133.157 166.696ZM122.917 139.344C121.741 139.344 120.614 139.81 119.782 140.64C118.949 141.471 118.481 142.597 118.479 143.771V161.918C118.481 163.094 118.949 164.22 119.781 165.051C120.613 165.882 121.741 166.35 122.917 166.352H133.157C134.333 166.35 135.46 165.882 136.291 165.051C137.122 164.22 137.588 163.093 137.588 161.918V143.765C137.588 142.59 137.122 141.464 136.291 140.634C135.46 139.804 134.332 139.338 133.157 139.338L122.917 139.344Z" fill="#263238"/>
<path d="M156.535 166.696H146.295C145.029 166.694 143.815 166.191 142.92 165.297C142.025 164.402 141.521 163.19 141.52 161.925V143.771C141.521 142.507 142.025 141.295 142.921 140.402C143.816 139.509 145.03 139.007 146.295 139.007H156.535C157.799 139.009 159.011 139.511 159.905 140.404C160.799 141.297 161.302 142.508 161.304 143.771V161.918C161.305 162.545 161.182 163.165 160.943 163.745C160.704 164.324 160.353 164.85 159.91 165.294C159.467 165.738 158.941 166.09 158.362 166.33C157.783 166.571 157.162 166.695 156.535 166.696ZM146.295 139.344C145.119 139.344 143.992 139.81 143.159 140.64C142.327 141.471 141.859 142.597 141.857 143.771V161.918C141.859 163.094 142.327 164.22 143.159 165.051C143.991 165.882 145.119 166.35 146.295 166.352H156.535C157.711 166.35 158.838 165.882 159.669 165.051C160.5 164.22 160.966 163.093 160.966 161.918V143.765C160.966 142.59 160.499 141.464 159.668 140.634C158.837 139.804 157.71 139.338 156.535 139.338L146.295 139.344Z" fill="#263238"/>
<path d="M179.231 166.696H168.998C167.732 166.694 166.518 166.191 165.623 165.297C164.728 164.402 164.224 163.19 164.222 161.925V143.771C164.224 142.507 164.728 141.295 165.623 140.402C166.519 139.509 167.732 139.007 168.998 139.007H179.231C180.496 139.007 181.71 139.509 182.606 140.402C183.501 141.295 184.005 142.507 184.007 143.771V161.918C184.007 163.184 183.504 164.398 182.608 165.294C181.713 166.19 180.498 166.694 179.231 166.696ZM168.998 139.344C167.822 139.344 166.694 139.81 165.862 140.64C165.03 141.471 164.562 142.597 164.56 143.771V161.918C164.56 163.094 165.027 164.222 165.86 165.053C166.692 165.885 167.821 166.352 168.998 166.352H179.231C180.408 166.35 181.535 165.882 182.367 165.051C183.199 164.22 183.667 163.094 183.669 161.918V143.765C183.667 142.59 183.199 141.464 182.367 140.634C181.535 139.804 180.407 139.338 179.231 139.338L168.998 139.344Z" fill="#263238"/>
<path d="M192.921 188.736H93.4849C89.2732 188.736 85.8589 192.148 85.8589 196.355V201.187C85.8589 205.395 89.2732 208.807 93.4849 208.807H192.921C197.132 208.807 200.547 205.395 200.547 201.187V196.355C200.547 192.148 197.132 188.736 192.921 188.736Z" fill="#0E854E"/>
<path d="M128.724 194.736H131.811C134.033 194.736 135.56 196.086 135.56 198.11C135.56 200.135 134.033 201.484 131.811 201.484H128.724V194.736ZM131.73 200.236C132.289 200.236 132.825 200.014 133.22 199.619C133.615 199.224 133.837 198.689 133.837 198.13C133.837 197.572 133.615 197.036 133.22 196.642C132.825 196.247 132.289 196.025 131.73 196.025H130.291V200.236H131.73Z" fill="white"/>
<path d="M136.249 198.92C136.214 198.345 136.352 197.773 136.646 197.278C136.94 196.783 137.376 196.387 137.898 196.142C138.42 195.897 139.003 195.815 139.572 195.905C140.141 195.996 140.67 196.255 141.091 196.649C141.511 197.043 141.803 197.554 141.929 198.116C142.055 198.678 142.009 199.265 141.797 199.8C141.586 200.336 141.218 200.796 140.742 201.12C140.265 201.444 139.703 201.618 139.126 201.619C138.757 201.643 138.387 201.591 138.038 201.467C137.69 201.342 137.371 201.147 137.101 200.894C136.831 200.64 136.617 200.335 136.47 199.995C136.323 199.656 136.248 199.29 136.249 198.92ZM140.457 198.92C140.457 198.562 140.315 198.219 140.061 197.966C139.808 197.712 139.464 197.57 139.106 197.57C138.748 197.57 138.404 197.712 138.151 197.966C137.897 198.219 137.755 198.562 137.755 198.92C137.755 199.278 137.897 199.621 138.151 199.874C138.404 200.127 138.748 200.27 139.106 200.27C139.464 200.27 139.808 200.127 140.061 199.874C140.315 199.621 140.457 199.278 140.457 198.92Z" fill="white"/>
<path d="M148.34 198.542V201.525H146.827V198.772C146.827 197.928 146.435 197.544 145.766 197.544C145.097 197.544 144.516 197.989 144.516 198.947V201.525H143.003V196.309H144.449V196.923C144.674 196.696 144.944 196.519 145.242 196.402C145.54 196.286 145.859 196.234 146.178 196.248C147.407 196.234 148.34 196.95 148.34 198.542Z" fill="white"/>
<path d="M154.858 199.345H150.906C150.989 199.669 151.185 199.953 151.459 200.145C151.733 200.337 152.066 200.424 152.399 200.391C152.641 200.402 152.882 200.362 153.108 200.275C153.333 200.188 153.538 200.055 153.71 199.885L154.52 200.762C154.245 201.052 153.909 201.277 153.537 201.423C153.164 201.569 152.764 201.631 152.365 201.606C150.555 201.606 149.38 200.472 149.38 198.906C149.373 198.543 149.441 198.181 149.58 197.845C149.719 197.508 149.925 197.204 150.187 196.951C150.449 196.697 150.76 196.501 151.101 196.373C151.442 196.245 151.806 196.188 152.17 196.207C152.529 196.19 152.888 196.248 153.224 196.377C153.559 196.507 153.864 196.705 154.119 196.959C154.373 197.213 154.572 197.518 154.701 197.853C154.831 198.189 154.889 198.547 154.871 198.906C154.885 199.055 154.865 199.217 154.858 199.345ZM150.886 198.481H153.46C153.41 198.176 153.253 197.899 153.018 197.698C152.782 197.498 152.482 197.388 152.173 197.388C151.863 197.388 151.564 197.498 151.328 197.698C151.093 197.899 150.936 198.176 150.886 198.481Z" fill="white"/>
<path d="M142.071 92.9138C153.281 92.9138 162.369 83.8344 162.369 72.6344C162.369 61.4344 153.281 52.355 142.071 52.355C130.861 52.355 121.773 61.4344 121.773 72.6344C121.773 83.8344 130.861 92.9138 142.071 92.9138Z" fill="#0E854E"/>
<path d="M138.485 68.9429H138.147V67.0533C138.147 66.0044 138.564 64.9986 139.306 64.2569C140.049 63.5153 141.055 63.0986 142.105 63.0986C143.155 63.0986 144.162 63.5153 144.904 64.2569C145.646 64.9986 146.063 66.0044 146.063 67.0533V68.592H145.726V67.0533C145.726 66.0939 145.344 65.1739 144.665 64.4955C143.986 63.8172 143.065 63.4361 142.105 63.4361C141.145 63.4361 140.224 63.8172 139.545 64.4955C138.866 65.1739 138.485 66.0939 138.485 67.0533V68.9429Z" fill="white"/>
<path d="M147.104 82.1703H137.039C136.597 82.1685 136.174 81.9923 135.861 81.6801C135.549 81.3679 135.373 80.9449 135.371 80.5034V70.4413C135.373 69.9998 135.549 69.5768 135.861 69.2646C136.174 68.9524 136.597 68.7762 137.039 68.7744H147.104C147.546 68.7762 147.969 68.9524 148.282 69.2646C148.594 69.5768 148.77 69.9998 148.772 70.4413V80.5034C148.77 80.9449 148.594 81.3679 148.282 81.6801C147.969 81.9923 147.546 82.1685 147.104 82.1703ZM137.039 69.1118C136.681 69.1118 136.337 69.254 136.084 69.5072C135.831 69.7603 135.688 70.1036 135.688 70.4616V80.5236C135.688 80.8816 135.831 81.2249 136.084 81.478C136.337 81.7311 136.681 81.8733 137.039 81.8733H147.104C147.462 81.8733 147.806 81.7311 148.059 81.478C148.312 81.2249 148.455 80.8816 148.455 80.5236V70.4413C148.455 70.0833 148.312 69.74 148.059 69.4869C147.806 69.2338 147.462 69.0916 147.104 69.0916L137.039 69.1118Z" fill="white"/>
<path d="M142.119 75.7994C141.806 75.7994 141.5 75.7068 141.241 75.5333C140.981 75.3598 140.778 75.1131 140.658 74.8246C140.539 74.536 140.507 74.2185 140.568 73.9122C140.629 73.6059 140.78 73.3245 141.001 73.1036C141.222 72.8828 141.504 72.7324 141.81 72.6715C142.117 72.6105 142.435 72.6418 142.724 72.7613C143.012 72.8808 143.259 73.0832 143.433 73.3429C143.607 73.6026 143.699 73.9079 143.699 74.2203C143.699 74.6391 143.533 75.0408 143.236 75.3369C142.94 75.6331 142.538 75.7994 142.119 75.7994ZM142.119 72.9853C141.873 72.9853 141.632 73.0583 141.427 73.195C141.223 73.3318 141.064 73.5261 140.97 73.7534C140.876 73.9807 140.852 74.2307 140.9 74.4718C140.949 74.7128 141.068 74.9341 141.242 75.1074C141.417 75.2808 141.639 75.3986 141.88 75.4457C142.122 75.4929 142.372 75.4673 142.599 75.3723C142.826 75.2773 143.02 75.1171 143.155 74.912C143.291 74.7069 143.363 74.4661 143.362 74.2203C143.364 74.0555 143.334 73.8919 143.273 73.7389C143.212 73.5859 143.12 73.4466 143.005 73.3291C142.889 73.2117 142.751 73.1184 142.599 73.0547C142.447 72.991 142.284 72.9583 142.119 72.9583V72.9853Z" fill="white"/>
<path d="M142.24 75.5635H141.903V78.4114H142.24V75.5635Z" fill="white"/>
<path d="M283.244 285.382L270.498 256.006L255.874 265.386L271.383 292.239L279.158 288.757L283.244 285.382Z" fill="#FFBE9D"/>
<path d="M282.961 283.743L283.379 284.579C283.379 284.579 300.367 283.129 301.874 285.734L273.747 299.71L269.471 290.167C274.619 290.032 279.104 288.075 282.961 283.743Z" fill="#F8B500"/>
<g opacity="0.6">
<path d="M273.808 291.753C273.578 291.969 273.437 292.262 273.411 292.576C273.384 292.89 273.476 293.203 273.666 293.454C273.874 293.691 274.165 293.84 274.48 293.869C274.794 293.898 275.107 293.804 275.355 293.609C275.597 293.379 275.746 293.068 275.772 292.735C275.799 292.402 275.7 292.072 275.497 291.807C275.258 291.578 274.94 291.45 274.609 291.45C274.278 291.45 273.959 291.578 273.72 291.807" fill="white"/>
</g>
<g opacity="0.6">
<path d="M273.747 299.709L272.72 297.415L300.05 284.863C300.05 284.863 301.576 284.788 301.874 285.74L273.747 299.709Z" fill="white"/>
</g>
<path d="M283.521 284.606C283.582 284.748 282.927 285.146 282.474 285.956C282.022 286.766 281.941 287.488 281.799 287.495C281.657 287.501 281.454 286.611 282.022 285.679C282.589 284.748 283.488 284.465 283.521 284.606Z" fill="#263238"/>
<path d="M287.088 284.357C287.189 284.478 286.71 285.031 286.534 285.814C286.358 286.597 286.534 287.312 286.385 287.373C286.237 287.434 285.771 286.698 286.014 285.693C286.257 284.687 287.007 284.228 287.088 284.357Z" fill="#263238"/>
<path d="M290.512 287.05C290.398 287.144 289.837 286.55 289.837 285.626C289.837 284.701 290.31 284.08 290.425 284.168C290.539 284.256 290.344 284.843 290.371 285.612C290.398 286.381 290.641 286.969 290.512 287.05Z" fill="#263238"/>
<path d="M259.272 290.484L259.758 258.469L242.568 261L245.634 291.854L254.159 291.875L259.272 290.484Z" fill="#FFBE9D"/>
<path d="M259.684 288.872L259.731 289.803C259.731 289.803 275.807 295.472 276.105 298.461L244.709 299.636L244.743 289.182C249.491 291.166 254.388 291.227 259.684 288.872Z" fill="#F8B500"/>
<g opacity="0.6">
<path d="M248.046 292.401C247.748 292.506 247.498 292.716 247.345 292.992C247.192 293.268 247.146 293.591 247.215 293.899C247.308 294.201 247.513 294.456 247.788 294.612C248.063 294.767 248.387 294.812 248.694 294.736C249.012 294.626 249.277 294.402 249.438 294.108C249.599 293.813 249.644 293.469 249.566 293.143C249.433 292.842 249.189 292.603 248.884 292.477C248.579 292.351 248.238 292.348 247.931 292.468" fill="white"/>
</g>
<g opacity="0.6">
<path d="M244.709 299.635V297.125L274.794 296.916C274.794 296.916 276.219 297.469 276.098 298.461L244.709 299.635Z" fill="white"/>
</g>
<path d="M259.839 289.884C259.839 290.039 259.076 290.14 258.34 290.66C257.603 291.179 257.232 291.834 257.083 291.78C256.935 291.726 257.137 290.835 258.036 290.221C258.934 289.607 259.866 289.742 259.839 289.884Z" fill="#263238"/>
<path d="M263.183 291.126C263.223 291.267 262.575 291.558 262.075 292.226C261.575 292.894 261.454 293.575 261.298 293.575C261.143 293.575 261.021 292.712 261.65 291.888C262.278 291.065 263.176 290.977 263.183 291.126Z" fill="#263238"/>
<path d="M265.203 294.986C265.067 295.02 264.824 294.264 265.203 293.413C265.581 292.563 266.27 292.199 266.344 292.32C266.418 292.442 265.986 292.914 265.669 293.616C265.351 294.318 265.358 294.986 265.203 294.986Z" fill="#263238"/>
<path d="M246.904 159.941L246.263 134.728L221.702 136.017L220.892 139C219.571 143.618 218.498 148.304 217.677 153.037C216.029 163.598 216.224 173.208 220.379 184.499C224.533 195.789 231.024 217.256 231.024 217.256L255.388 284.492L283.758 275.172L246.904 159.941Z" fill="#263238"/>
<path d="M261.758 133.911L263.899 140.896C267.047 142.92 272.133 152.841 272.599 156.903C273.065 160.966 273.95 174.875 273.025 191.179C272.234 204.589 265.594 283.074 265.594 283.074L238.751 284.492L241.548 157.578L242.73 134.917L261.758 133.911Z" fill="#263238"/>
<path d="M215.758 155.358C216.058 155.485 216.37 155.578 216.69 155.635C217.55 155.826 218.425 155.944 219.305 155.986C222.235 156.144 225.157 155.543 227.788 154.243C230.418 152.942 232.668 150.986 234.32 148.562C234.823 147.838 235.259 147.07 235.624 146.268C235.774 145.981 235.89 145.678 235.968 145.363C235.901 145.33 235.394 146.625 234.104 148.414C232.426 150.748 230.2 152.636 227.623 153.912C225.045 155.189 222.194 155.815 219.318 155.736C218.126 155.67 216.938 155.544 215.758 155.358Z" fill="#455A64"/>
<path d="M260.744 141.874C260.763 142.077 260.816 142.276 260.9 142.462C261.074 142.978 261.282 143.483 261.521 143.973C263.088 147.255 265.54 150.036 268.6 152.004C269.058 152.301 269.534 152.569 270.025 152.807C270.2 152.911 270.389 152.989 270.586 153.037C270.62 152.976 269.87 152.571 268.749 151.781C265.818 149.737 263.42 147.02 261.758 143.858C261.102 142.65 260.792 141.854 260.744 141.874Z" fill="#455A64"/>
<path d="M248.093 163.308C248.093 163.308 248.161 163.477 248.275 163.828L248.769 165.373C249.201 166.723 249.829 168.747 250.633 171.319C252.24 176.502 254.564 183.979 257.435 193.218C263.257 211.682 270.654 237.4 280.57 265.238C281.704 268.572 282.83 271.863 283.947 275.111L284.001 275.287L283.832 275.341L255.462 284.647L255.307 284.701L255.253 284.546L238.94 239.331L234.3 226.38C233.766 224.882 233.361 223.721 233.077 222.932C232.942 222.545 232.841 222.248 232.773 222.041L232.672 221.737C232.672 221.737 232.719 221.832 232.794 222.034C232.868 222.236 232.983 222.533 233.131 222.911L234.401 226.34C235.502 229.356 237.103 233.763 239.13 239.263L255.557 284.411L255.354 284.31L283.724 274.983L283.609 275.206C282.501 271.957 281.376 268.666 280.232 265.333C270.316 237.488 262.96 211.763 257.198 193.278C254.375 184.019 252.092 176.529 250.504 171.346C249.728 168.754 249.12 166.75 248.708 165.373C248.505 164.698 248.35 164.179 248.248 163.821C248.147 163.463 248.093 163.308 248.093 163.308Z" fill="#455A64"/>
<path d="M272.227 90.1337C272.227 90.1337 270.944 82.96 267.263 79.5249C263.581 76.0899 248.242 72.2028 248.242 72.2028C248.242 72.2028 248.424 77.5274 244.993 78.9513C241.359 80.4697 237.724 79.9569 234.861 76.9268C233.135 75.0435 231.931 72.7429 231.368 70.2524C231.368 70.2524 213.185 72.9046 210.598 77.8311C208.011 82.7575 205.302 101.451 205.302 101.451L221.777 104.049L221.243 136.024L264.541 133.75L262.095 103.914L273.97 104.974L272.227 90.1337Z" fill="#455A64"/>
<path d="M225.059 104.947C225.085 104.709 225.085 104.469 225.059 104.231C225.059 103.766 225.019 103.097 224.972 102.267C224.884 100.621 224.742 98.3398 224.553 95.8225C224.364 93.3053 224.181 91.0243 224.026 89.3777C223.945 88.5544 223.877 87.8863 223.823 87.4273C223.812 87.1865 223.769 86.9482 223.695 86.7188C223.66 86.9559 223.66 87.1969 223.695 87.4341C223.695 87.8997 223.735 88.5679 223.783 89.3912C223.871 91.0446 224.012 93.3256 224.202 95.8428C224.391 98.36 224.573 100.641 224.728 102.288C224.803 103.111 224.877 103.779 224.931 104.238C224.937 104.479 224.981 104.718 225.059 104.947Z" fill="#263238"/>
<path d="M265.378 89.6743C265.277 89.6743 264.432 92.9339 263.487 97.01C262.854 99.4575 262.345 101.935 261.96 104.433C262.714 102.022 263.345 99.5732 263.852 97.0977C264.484 94.6503 264.994 92.1727 265.378 89.6743Z" fill="#263238"/>
<path d="M212.34 76.6162C212.34 76.6837 213.124 76.7849 214.367 77.1763C215.944 77.6881 217.42 78.469 218.73 79.4843C220.032 80.5114 221.149 81.7529 222.033 83.1556C222.709 84.2421 222.992 84.9844 223.06 84.9574C223.036 84.7705 222.984 84.5884 222.905 84.4175C222.729 83.9352 222.515 83.468 222.263 83.0206C220.563 80.0417 217.75 77.8576 214.441 76.9469C213.948 76.8062 213.444 76.7091 212.935 76.6567C212.741 76.6063 212.539 76.5926 212.34 76.6162Z" fill="#263238"/>
<path d="M267.607 80.9688C267.263 81.6909 267.035 82.4631 266.932 83.2565C266.716 84.0221 266.623 84.817 266.655 85.6118C266.985 84.8889 267.201 84.1195 267.297 83.3307C267.524 82.5647 267.629 81.7675 267.607 80.9688Z" fill="#263238"/>
<path d="M208.22 101.93C208.22 101.93 214.407 126.434 215.076 128.526C215.745 130.618 216.947 136.273 222.918 137.137C230.983 138.311 262.257 135.551 262.257 135.551L255.955 128.384L228.133 122.148L223.405 104.332L208.22 101.93Z" fill="#FFBE9D"/>
<path d="M256.253 124.18C256.147 124.36 256.078 124.56 256.05 124.767C255.914 125.313 255.837 125.871 255.82 126.434C255.752 128.31 256.241 130.165 257.225 131.765C257.751 132.648 258.399 133.452 259.15 134.154C259.774 134.727 260.51 135.164 261.312 135.436C261.852 135.61 262.413 135.705 262.98 135.72C263.187 135.743 263.396 135.724 263.595 135.666C262.852 135.573 262.12 135.413 261.406 135.187C260.652 134.896 259.963 134.458 259.38 133.898C258.671 133.202 258.054 132.42 257.543 131.569C256.601 130.021 256.097 128.246 256.084 126.434C256.077 125.044 256.32 124.193 256.253 124.18Z" fill="#EB996E"/>
<path d="M224.863 98.9873C224.614 98.9889 224.365 98.964 224.12 98.9131L222.094 98.6229C220.405 98.3799 218.041 98.1032 215.481 97.7658C213.268 97.497 211.07 97.1163 208.895 96.6253C208.065 96.4229 207.396 96.2407 206.943 96.0922C206.709 96.0329 206.482 95.9468 206.268 95.8357C206.268 95.775 207.308 96.0449 208.97 96.3756C210.631 96.7063 212.968 97.0505 215.549 97.4082C218.129 97.7658 220.473 98.083 222.155 98.3664C222.999 98.5217 223.675 98.6634 224.141 98.7781C224.39 98.8127 224.634 98.8832 224.863 98.9873Z" fill="#F8B500"/>
<path d="M223.594 90.8284C223.384 90.8666 223.171 90.8779 222.959 90.8622C222.547 90.8622 221.952 90.8622 221.216 90.8082C219.75 90.734 217.724 90.572 215.495 90.2953C213.266 90.0186 211.26 89.6744 209.821 89.3843C209.098 89.2358 208.517 89.1076 208.119 89.0063C207.907 88.9784 207.701 88.9145 207.511 88.8174C208.303 88.8673 209.091 88.9733 209.868 89.1346C211.314 89.3573 213.32 89.661 215.535 89.9376C217.751 90.2143 219.771 90.4168 221.236 90.5518C222.028 90.5867 222.816 90.6792 223.594 90.8284Z" fill="#F8B500"/>
<path d="M222.182 84.62C221.542 84.6937 220.896 84.6937 220.257 84.62C217.163 84.4084 214.105 83.8354 211.145 82.9126C210.521 82.7532 209.916 82.5269 209.341 82.2378C209.976 82.3318 210.602 82.4785 211.212 82.6764C212.354 82.9734 213.948 83.3513 215.718 83.6887C217.487 84.0262 219.095 84.2354 220.284 84.3636C220.922 84.3989 221.557 84.4846 222.182 84.62Z" fill="#F8B500"/>
<path d="M233.726 75.7725C233.021 76.0587 232.293 76.2845 231.551 76.4473C230.2 76.7982 228.315 77.2301 226.228 77.6486C224.141 78.067 222.229 78.3841 220.824 78.5866C220.081 78.7314 219.326 78.8105 218.568 78.8228C219.292 78.6082 220.03 78.4459 220.777 78.3369L226.127 77.2976L231.47 76.1976C232.209 75.9971 232.964 75.8549 233.726 75.7725Z" fill="#F8B500"/>
<path d="M267.29 83.0812C267.024 83.0192 266.766 82.9287 266.52 82.8113L264.453 81.961C262.717 81.2456 260.312 80.2536 257.637 79.2076C254.963 78.1615 252.524 77.264 250.754 76.6161L248.667 75.8468C248.403 75.7676 248.148 75.6565 247.911 75.5161C248.183 75.5522 248.45 75.6178 248.708 75.7118C249.221 75.8535 249.944 76.083 250.842 76.3867C252.632 76.9738 255.091 77.8376 257.772 78.8836C260.454 79.9297 262.845 80.9554 264.527 81.7383C265.385 82.1297 266.074 82.4536 266.554 82.6898C266.813 82.7914 267.06 82.9228 267.29 83.0812Z" fill="#F8B500"/>
<path d="M265.378 89.371C265.237 89.3705 265.097 89.3547 264.96 89.3237L263.757 89.1348L259.367 88.3654C255.658 87.6906 250.532 86.82 244.831 86.1317C241.98 85.801 239.258 85.5648 236.772 85.4163C234.286 85.2679 232.044 85.2341 230.173 85.2679C229.234 85.2679 228.383 85.3083 227.633 85.3286C226.883 85.3488 226.248 85.3758 225.722 85.4163L224.512 85.4771C224.371 85.4932 224.228 85.4932 224.087 85.4771C224.224 85.4391 224.364 85.4164 224.506 85.4096L225.708 85.2813C226.235 85.2206 226.877 85.1666 227.626 85.1329C228.376 85.0991 229.227 85.0249 230.166 85.0182C232.051 84.9574 234.3 84.9844 236.792 85.0924C239.285 85.2004 242.014 85.4501 244.898 85.7672C250.606 86.4421 255.706 87.3936 259.434 88.109C261.278 88.4667 262.812 88.7838 263.804 88.9863L264.993 89.2495C265.126 89.2737 265.256 89.3145 265.378 89.371Z" fill="#F8B500"/>
<path d="M247.911 100.398C247.603 100.426 247.293 100.426 246.985 100.398C246.384 100.364 245.526 100.29 244.459 100.182C242.338 99.9593 239.407 99.5746 236.198 98.9875C232.99 98.4004 230.119 97.7323 228.045 97.1924C227.012 96.9157 226.181 96.6863 225.613 96.5175C225.312 96.4432 225.018 96.3415 224.735 96.2139C225.045 96.2351 225.351 96.2917 225.647 96.3826L228.106 96.9562C230.186 97.4353 233.064 98.063 236.266 98.6501C239.467 99.2372 242.379 99.6556 244.493 99.9391L246.999 100.276C247.306 100.285 247.612 100.325 247.911 100.398Z" fill="#F8B500"/>
<path d="M262.602 100.628C260.318 100.826 258.025 100.907 255.732 100.871C253.444 100.948 251.154 100.91 248.87 100.756C251.151 100.553 253.442 100.472 255.732 100.513C258.023 100.428 260.316 100.466 262.602 100.628Z" fill="#F8B500"/>
<path d="M243.304 110.318C243.054 110.341 242.801 110.33 242.554 110.285C242.081 110.244 241.385 110.156 240.528 110.035C238.825 109.792 236.475 109.36 233.928 108.786C231.382 108.213 229.092 107.518 227.464 106.984C226.647 106.715 225.992 106.485 225.539 106.31C225.303 106.237 225.077 106.137 224.864 106.013C225.113 106.033 225.358 106.088 225.593 106.175L227.545 106.742C229.187 107.214 231.47 107.835 234.016 108.435C236.563 109.036 238.886 109.481 240.575 109.785L242.601 110.15C242.842 110.177 243.077 110.233 243.304 110.318Z" fill="#F8B500"/>
<path d="M259.211 111.02C258.488 111.092 257.759 111.092 257.036 111.02C255.685 110.973 253.841 110.838 251.808 110.575C249.775 110.311 247.944 109.967 246.634 109.677C245.918 109.553 245.217 109.359 244.54 109.097C245.263 109.152 245.982 109.262 246.688 109.427C248.005 109.657 249.829 109.954 251.855 110.217C253.882 110.48 255.719 110.656 257.05 110.77C257.775 110.802 258.498 110.886 259.211 111.02Z" fill="#F8B500"/>
<path d="M255.895 119.834C255.809 119.887 255.716 119.926 255.618 119.949C255.435 120.003 255.165 120.097 254.807 120.192C253.807 120.461 252.792 120.67 251.767 120.819C248.379 121.291 244.944 121.32 241.548 120.907C238.158 120.498 234.798 119.869 231.49 119.024C230.22 118.714 229.2 118.444 228.491 118.248C228.118 118.17 227.754 118.057 227.403 117.911C227.781 117.952 228.156 118.02 228.525 118.113L231.551 118.788C234.861 119.554 238.209 120.146 241.581 120.563C244.947 120.959 248.348 120.959 251.713 120.563C253.004 120.401 254.044 120.205 254.76 120.05C255.132 119.95 255.512 119.878 255.895 119.834Z" fill="#F8B500"/>
<path d="M271.505 94.5067C270.372 94.6902 269.227 94.7827 268.08 94.7834C266.933 94.9052 265.775 94.878 264.635 94.7024C265.768 94.519 266.913 94.4265 268.06 94.4258C269.207 94.304 270.365 94.3312 271.505 94.5067Z" fill="#F8B500"/>
<path d="M270.593 86.2868C269.344 86.4494 268.075 86.3669 266.857 86.0439C268.107 85.8903 269.374 85.9727 270.593 86.2868Z" fill="#F8B500"/>
<path d="M241.994 110.905C241.96 110.845 242.703 110.473 243.716 109.637C244.301 109.143 244.84 108.596 245.324 108.003C246.504 106.539 247.334 104.824 247.749 102.989C247.913 102.239 248.005 101.476 248.025 100.708C248.059 99.399 247.884 98.5892 247.951 98.5757C248.035 98.7524 248.09 98.9415 248.113 99.1358C248.166 99.3577 248.202 99.5833 248.221 99.8107C248.257 100.109 248.278 100.408 248.282 100.708C248.298 101.496 248.228 102.284 248.073 103.057C247.683 104.955 246.826 106.727 245.58 108.213C245.072 108.816 244.499 109.361 243.871 109.839C243.634 110.025 243.386 110.196 243.128 110.352C242.938 110.476 242.74 110.587 242.534 110.683C242.368 110.787 242.185 110.862 241.994 110.905Z" fill="#263238"/>
<g opacity="0.3">
<path d="M247.782 104.333L245.155 108.233C243.378 110.453 240.894 111.999 238.116 112.613C239.333 113.039 240.641 113.139 241.909 112.901C243.177 112.663 244.36 112.096 245.339 111.257C246.318 110.418 247.059 109.337 247.488 108.121C247.917 106.906 248.018 105.599 247.782 104.333Z" fill="black"/>
</g>
<path d="M255.57 63.6726C258.078 63.8915 260.595 63.3806 262.818 62.2014C259.549 60.1768 257.489 56.6271 256.489 52.9222C255.489 49.2172 254.206 42.9006 254.172 39.0674L248.188 65.6364C251.342 66.3483 254.638 66.0919 257.644 64.9008C257.225 64.878 256.818 64.7544 256.457 64.5405C256.096 64.3267 255.792 64.029 255.57 63.6726Z" fill="#263238"/>
<path d="M238.494 66.8848C237.193 63.8995 236.695 60.6264 237.049 57.3896L224.985 52.8208C224.43 56.0994 223.111 59.2016 221.135 61.8774C220.399 62.8761 219.521 64.0369 219.865 65.2516C220.016 65.6549 220.266 66.0132 220.594 66.293C220.921 66.5728 221.314 66.7648 221.736 66.851C222.585 66.9962 223.453 66.9962 224.303 66.851L222.763 68.5314C227.95 67.535 233.213 66.9841 238.494 66.8848Z" fill="#263238"/>
<path d="M239.515 27.1762C235.712 26.7848 232.496 28.4517 229.464 30.7732C226.441 33.1618 224.221 36.4158 223.101 40.0997C221.84 43.9586 221.868 48.1223 223.182 51.9637C223.853 53.8677 224.903 55.6161 226.27 57.1031C227.636 58.5901 229.29 59.7849 231.132 60.6153C236.185 62.7748 242.392 61.4994 246.553 57.9159C250.714 54.3324 252.855 48.6906 252.706 43.1905C252.659 39.3756 251.409 35.6727 249.133 32.6088C247.986 31.0984 246.54 29.8397 244.885 28.911C243.231 27.9823 241.403 27.4033 239.515 27.21" fill="#263238"/>
<path d="M229.673 40.6597C230.125 39.1885 229.808 37.5958 229.923 36.0572C230.186 32.6829 232.719 29.8013 235.759 28.2896C238.596 26.8791 242.169 26.9399 245.749 27.8172C248.234 28.3935 250.503 29.6672 252.288 31.4884C253.43 32.7275 254.259 34.2222 254.705 35.8473C255.15 37.4724 255.199 39.1805 254.848 40.8284L237.495 39.4787C236.051 40.9984 234.367 42.2705 232.51 43.2444C231.965 43.5305 231.355 43.67 230.74 43.6493C230.424 43.6326 230.119 43.5232 229.864 43.3348C229.61 43.1464 229.416 42.8873 229.308 42.5898C229.105 41.9689 229.45 41.3008 229.673 40.6597Z" fill="#263238"/>
<path d="M246.411 32.5347L231.611 36.6918C230.914 36.784 230.277 37.1338 229.826 37.6723C229.375 38.2108 229.142 38.8988 229.173 39.6005L231.483 72.0407C231.642 74.2552 232.525 76.3561 233.996 78.02L235.549 79.7678C239.089 83.763 245.681 82.9059 247.856 78.0402C247.988 77.7634 248.083 77.4708 248.14 77.1696C248.189 76.9246 248.22 76.6766 248.235 76.4273C248.388 74.7853 248.367 73.1318 248.174 71.4941C248.133 68.599 248.1 67.4112 248.1 67.445C248.1 67.4787 254.179 66.264 255.246 58.2602C255.773 54.2718 255.401 47.7797 254.922 42.4686C254.496 37.6906 251.166 31.9004 246.411 32.5347Z" fill="#FFBE9D"/>
<path d="M252.078 47.5705C252.086 47.8377 251.989 48.0974 251.809 48.295C251.629 48.4926 251.379 48.6127 251.112 48.63C250.983 48.644 250.852 48.6318 250.727 48.5943C250.603 48.5568 250.487 48.4946 250.387 48.4115C250.287 48.3285 250.204 48.2262 250.144 48.1107C250.084 47.9952 250.048 47.8689 250.038 47.7392C250.027 47.4733 250.121 47.2136 250.298 47.0157C250.476 46.8177 250.725 46.6971 250.991 46.6797C251.121 46.6648 251.253 46.6762 251.379 46.7132C251.505 46.7502 251.622 46.8121 251.723 46.8952C251.825 46.9782 251.908 47.0808 251.969 47.1968C252.03 47.3129 252.067 47.4399 252.078 47.5705Z" fill="#263238"/>
<path d="M253.605 45.8832C253.476 46.0181 252.686 45.4648 251.578 45.4985C250.47 45.5322 249.687 46.1059 249.552 45.9709C249.417 45.8359 249.613 45.6672 249.957 45.404C250.424 45.0621 250.986 44.8735 251.565 44.8641C252.139 44.846 252.705 45.0115 253.179 45.3365C253.544 45.5862 253.665 45.8224 253.605 45.8832Z" fill="#263238"/>
<path d="M241.649 48.1171C241.658 48.3837 241.563 48.6433 241.384 48.8411C241.205 49.0389 240.956 49.1593 240.69 49.1766C240.56 49.1906 240.429 49.1785 240.304 49.141C240.179 49.1036 240.062 49.0415 239.962 48.9585C239.861 48.8756 239.778 48.7733 239.717 48.6578C239.657 48.5422 239.62 48.4158 239.609 48.2858C239.6 48.0193 239.695 47.7596 239.874 47.5618C240.053 47.364 240.302 47.2437 240.568 47.2263C240.698 47.2124 240.829 47.2245 240.954 47.2619C241.079 47.2994 241.196 47.3614 241.296 47.4444C241.397 47.5274 241.48 47.6297 241.541 47.7452C241.601 47.8607 241.638 47.9872 241.649 48.1171Z" fill="#263238"/>
<path d="M242.777 46.3757C242.655 46.5106 241.865 45.964 240.751 45.991C239.636 46.018 238.859 46.5984 238.724 46.4634C238.589 46.3284 238.785 46.1665 239.136 45.8965C239.603 45.5546 240.165 45.366 240.744 45.3566C241.316 45.3399 241.879 45.5053 242.351 45.829C242.716 46.0787 242.838 46.3149 242.777 46.3757Z" fill="#263238"/>
<path d="M246.992 54.4339C247.568 54.2355 248.167 54.1108 248.775 54.0627C249.059 54.0627 249.322 53.9615 249.363 53.7725C249.378 53.4811 249.305 53.1919 249.153 52.9424L248.262 50.8234C247.026 47.8068 246.127 45.3233 246.235 45.2761C246.343 45.2288 247.458 47.6313 248.694 50.6749L249.545 52.8075C249.733 53.1417 249.795 53.5316 249.721 53.9075C249.685 54.0093 249.625 54.1011 249.546 54.1751C249.468 54.2491 249.372 54.3031 249.268 54.3326C249.115 54.3778 248.956 54.4027 248.795 54.4069C248.198 54.492 247.592 54.5011 246.992 54.4339Z" fill="#263238"/>
<path d="M248.1 67.438C244.345 67.5932 240.62 66.7055 237.34 64.8735C237.34 64.8735 240.17 70.3196 248.147 69.3613L248.1 67.438Z" fill="#EB996E"/>
<path d="M246.6 57.0994C246.382 56.8439 246.103 56.6479 245.789 56.5298C245.475 56.4117 245.136 56.3755 244.803 56.4246C244.562 56.4473 244.328 56.5189 244.116 56.6349C243.903 56.7509 243.717 56.909 243.567 57.0994C243.418 57.2906 243.333 57.5236 243.323 57.7656C243.314 58.0076 243.38 58.2466 243.513 58.4491C243.697 58.6392 243.932 58.7713 244.191 58.8289C244.449 58.8864 244.718 58.867 244.965 58.7731C245.483 58.5764 245.956 58.2781 246.357 57.8957C246.475 57.8025 246.578 57.6909 246.661 57.5651C246.701 57.5038 246.722 57.4323 246.722 57.3592C246.722 57.2862 246.701 57.2147 246.661 57.1534" fill="#EB996E"/>
<path d="M243.777 55.2773C243.952 55.2773 243.986 56.4583 245.033 57.3019C246.08 58.1455 247.35 57.9768 247.364 58.1252C247.377 58.2737 247.087 58.3614 246.546 58.3884C245.846 58.4183 245.157 58.2009 244.601 57.7743C244.07 57.3622 243.721 56.7593 243.628 56.0939C243.567 55.5743 243.689 55.2773 243.777 55.2773Z" fill="#263238"/>
<path d="M242.878 43.0419C242.777 43.3456 241.669 43.2309 240.386 43.4266C239.102 43.6223 238.062 43.9934 237.88 43.7303C237.799 43.602 237.974 43.3186 238.386 43.0149C238.941 42.6503 239.572 42.4192 240.231 42.34C240.891 42.2442 241.565 42.3067 242.196 42.5223C242.676 42.6707 242.919 42.9002 242.878 43.0419Z" fill="#263238"/>
<path d="M253.152 41.0784C252.97 41.3348 252.2 41.0784 251.288 41.0784C250.376 41.0784 249.606 41.2943 249.424 41.0379C249.343 40.9097 249.457 40.66 249.788 40.4103C250.233 40.1129 250.756 39.9541 251.291 39.9541C251.826 39.9541 252.35 40.1129 252.794 40.4103C253.125 40.7004 253.24 40.9569 253.152 41.0784Z" fill="#263238"/>
<path d="M226.748 38.5408C228.004 33.8708 234.388 27.21 239.224 27.3247L247.134 31.5898C246.943 32.9131 246.398 34.1603 245.556 35.1997C244.714 36.2391 243.607 37.032 242.351 37.4948C241 37.9739 239.379 38.1696 238.623 39.3641C237.866 40.5586 238.413 42.3132 237.697 43.582C236.711 45.3366 233.793 45.3906 233.077 47.2734C232.76 48.09 232.989 49.0483 232.658 49.8649C232.226 50.9514 229.585 52.4293 228.45 52.1256C227.315 51.8219 227.228 49.9189 226.816 48.9403C226.303 47.8363 226.189 46.5895 226.491 45.4108C226.876 43.1298 226.147 40.7543 226.748 38.5408Z" fill="#263238"/>
<path d="M231.794 52.9017C231.794 52.3078 231.051 50.9244 230.443 50.8771C228.869 50.6747 226.052 50.8771 226.127 54.852C226.242 60.2914 231.679 59.0631 231.686 58.9012C231.693 58.7392 231.848 54.9533 231.794 52.9017Z" fill="#FFBE9D"/>
<path d="M229.997 56.8497C229.997 56.8497 229.902 56.9172 229.747 56.9982C229.52 57.0894 229.266 57.0894 229.038 56.9982C228.457 56.8025 227.957 55.8982 227.91 54.9196C227.885 54.4577 227.966 53.9962 228.146 53.5699C228.19 53.4008 228.275 53.2449 228.392 53.1156C228.51 52.9863 228.657 52.8875 228.822 52.8276C228.931 52.7954 229.047 52.8028 229.151 52.8485C229.255 52.8942 229.339 52.9753 229.389 53.0773C229.463 53.2258 229.436 53.3337 229.463 53.3472C229.49 53.3607 229.578 53.2528 229.531 53.0301C229.496 52.8961 229.418 52.7775 229.308 52.6926C229.234 52.636 229.149 52.5954 229.058 52.5734C228.967 52.5513 228.873 52.5482 228.781 52.5644C228.559 52.6149 228.354 52.7206 228.184 52.8716C228.014 53.0226 227.885 53.2141 227.809 53.4282C227.586 53.9021 227.483 54.4237 227.511 54.9466C227.565 56.0467 228.146 57.0589 228.937 57.2681C229.084 57.3088 229.238 57.3154 229.388 57.2873C229.538 57.2592 229.679 57.1973 229.801 57.1062C229.99 56.9847 230.017 56.8632 229.997 56.8497Z" fill="#EB996E"/>
<path d="M225.492 37.191C225.397 35.4904 223.209 34.4916 221.527 34.2419C219.818 34.0613 218.101 34.5074 216.697 35.4971C215.86 36.0303 215.022 36.7659 214.894 37.7512C214.765 38.7364 215.779 39.8365 216.684 39.4248C216.244 39.6059 215.85 39.8817 215.529 40.2327C215.209 40.5837 214.97 41.0011 214.829 41.4551C214.689 41.9091 214.651 42.3885 214.717 42.8589C214.784 43.3294 214.954 43.7794 215.214 44.1767C215.475 44.574 215.821 44.9088 216.226 45.1572C216.632 45.4056 217.087 45.5614 217.56 45.6135C218.033 45.6657 218.511 45.6128 218.961 45.4588C219.411 45.3047 219.821 45.0533 220.162 44.7224C219.792 46.3261 218.884 47.755 217.589 48.7715C219.006 48.8758 220.426 48.6061 221.706 47.9892C222.986 47.3724 224.081 46.4303 224.881 45.2572C225.682 44.0842 226.16 42.7214 226.267 41.3057C226.374 39.89 226.107 38.471 225.492 37.191Z" fill="#263238"/>
<path d="M216.015 60.4871C216.015 60.2306 216.724 60.1092 217.69 59.8122C218.924 59.4702 220.081 58.8977 221.101 58.1251C222.101 57.3237 222.938 56.3387 223.567 55.2232C224.087 54.3527 224.364 53.725 224.62 53.7655C224.877 53.806 225.026 54.5281 224.756 55.6889C224.353 57.2174 223.461 58.5725 222.216 59.5473C220.971 60.5221 219.441 61.0631 217.859 61.0877C216.663 61.0675 215.988 60.7233 216.015 60.4871Z" fill="#263238"/>
<path d="M222.29 46.0656C222.095 45.5496 221.99 45.0041 221.979 44.4527C221.789 41.7734 222.502 39.1076 224.006 36.8808C224.29 36.4063 224.653 35.984 225.08 35.6323C224.038 37.1459 223.234 38.8095 222.695 40.5655C222.282 42.3677 222.145 44.2223 222.29 46.0656Z" fill="#F8B500"/>
<path d="M245.452 30.0378C246.094 32.2109 249.64 34.8226 251.227 36.449C254.253 39.5398 254.881 40.5926 255.334 47.9215C256.496 45.3031 257.36 42.7521 257.056 39.9042C256.804 37.0209 255.507 34.3287 253.409 32.3324C252.352 31.358 251.083 30.6427 249.702 30.2433C248.321 29.8439 246.866 29.7712 245.452 30.0311" fill="#263238"/>
<path d="M280.941 93.4942C280.941 93.4942 277.307 108.584 275.814 115.09C274.254 122.02 270.782 137.744 261.569 135.45C254.557 133.722 256.118 124.652 256.118 124.652L262.095 103.914L267.634 104.542L272.721 92.0298L278.205 86.2598L280.941 93.4942Z" fill="#FFBE9D"/>
<path d="M258.563 125.192C258.254 124.095 258.192 122.942 258.38 121.818C258.612 120.613 259.051 119.458 259.677 118.403C260.483 117.117 261.387 115.894 262.379 114.746C263.377 113.579 264.28 112.336 265.081 111.027C265.719 109.95 266.265 108.821 266.716 107.653C267.016 106.866 267.269 106.061 267.472 105.244C267.563 104.947 267.62 104.642 267.641 104.333C267.515 104.614 267.411 104.905 267.33 105.203C267.148 105.763 266.878 106.553 266.466 107.552C265.987 108.691 265.425 109.795 264.784 110.852C263.971 112.133 263.068 113.356 262.082 114.509C261.079 115.674 260.175 116.92 259.38 118.235C258.746 119.328 258.317 120.529 258.117 121.778C257.987 122.622 258.024 123.484 258.225 124.315C258.281 124.546 258.356 124.771 258.448 124.99C258.509 125.125 258.549 125.199 258.563 125.192Z" fill="#EB996E"/>
<path d="M272.295 93.2043C272.295 92.9343 272.43 88.541 272.518 87.3937C272.588 86.6677 272.792 85.9608 273.119 85.3084C273.245 85.0696 273.424 84.8627 273.642 84.7035C273.86 84.5444 274.112 84.4373 274.378 84.3904C274.644 84.3435 274.917 84.358 275.176 84.4329C275.436 84.5079 275.675 84.6411 275.875 84.8226L275.976 84.9103C276.497 83.8906 277.238 82.9987 278.144 82.2986C279.435 81.455 280.495 80.8814 281.603 81.5428C281.906 81.6924 282.164 81.919 282.351 82.1997C282.538 82.4804 282.648 82.8055 282.67 83.1422C282.67 83.1422 284.312 82.9195 285.021 83.5808C285.73 84.2422 285.021 86.2397 285.021 86.2397C285.021 86.2397 286.48 85.7943 286.838 86.8606C287.017 87.598 286.905 88.3758 286.527 89.0337C286.527 89.0337 287.675 89.3846 287.81 90.2281C287.946 91.0717 286.662 91.9963 286.662 91.9963L282.657 95.1816C282.123 96.8449 281.033 98.2744 279.57 99.2307C276.787 100.297 272.295 93.2043 272.295 93.2043Z" fill="#FFBE9D"/>
<path d="M275.348 88.4192C275.389 88.4192 275.382 88.5879 275.26 88.7903C275.11 89.0596 274.871 89.2692 274.585 89.3842C274.287 89.484 273.964 89.484 273.666 89.3842C273.443 89.31 273.335 89.202 273.355 89.1547C273.376 89.1075 273.903 89.229 274.456 89.013C275.01 88.7971 275.253 88.3719 275.348 88.4192Z" fill="#EB996E"/>
<path d="M278.523 84.4917C278.462 84.5727 278.077 84.3027 278.009 83.7763C277.942 83.2499 278.232 82.8923 278.313 82.953C278.394 83.0137 278.313 83.3377 278.367 83.7291C278.421 84.1205 278.597 84.4309 278.523 84.4917Z" fill="#EB996E"/>
<path d="M285.217 86.1992C285.217 86.1992 284.933 86.6109 284.332 87.1305C283.538 87.7866 282.706 88.395 281.839 88.9526C281.373 89.3203 280.827 89.5744 280.245 89.695C279.995 89.7369 279.739 89.7122 279.502 89.6233C279.264 89.5344 279.055 89.3846 278.894 89.1888C278.792 89.0482 278.728 88.8833 278.709 88.7105C278.69 88.5377 278.717 88.363 278.786 88.2035C278.894 87.9876 279.029 87.9336 279.043 87.9538C279.056 87.9741 278.969 88.0618 278.915 88.2575C278.884 88.3933 278.884 88.5343 278.915 88.67C278.947 88.8056 279.009 88.9322 279.097 89.0404C279.242 89.1851 279.422 89.2907 279.619 89.3473C279.817 89.404 280.025 89.4098 280.225 89.3643C280.75 89.233 281.24 88.9914 281.664 88.6557C282.67 87.9808 283.569 87.3937 284.197 86.9281C284.512 86.6527 284.854 86.4086 285.217 86.1992Z" fill="#EB996E"/>
<path d="M286.5 89.0132C285.285 89.7668 284.008 90.417 282.684 90.9568C282.175 91.2402 281.61 91.4062 281.029 91.4427C280.771 91.4555 280.516 91.3919 280.295 91.2598C280.073 91.1276 279.896 90.9329 279.786 90.7003C279.746 90.6065 279.725 90.5055 279.725 90.4034C279.725 90.3013 279.746 90.2003 279.786 90.1065C279.845 89.9682 279.947 89.8524 280.076 89.7758C280.299 89.6543 280.441 89.7218 280.434 89.7353C280.428 89.7488 280.306 89.7353 280.157 89.8905C280.066 89.9741 280.004 90.085 279.981 90.2066C279.958 90.3282 279.975 90.4541 280.029 90.5654C280.13 90.7374 280.279 90.8766 280.458 90.9664C280.636 91.0561 280.837 91.0926 281.036 91.0715C281.565 91.0166 282.078 90.8535 282.542 90.5924C283.816 89.9595 285.14 89.4314 286.5 89.0132Z" fill="#EB996E"/>
<path d="M284.555 92.61C284.555 92.6505 284.339 92.8192 283.879 92.9272C283.618 92.9884 283.35 93.0156 283.082 93.0082C282.738 93.015 282.397 92.9386 282.089 92.7855C281.992 92.7266 281.913 92.6416 281.862 92.5402C281.811 92.4388 281.789 92.325 281.799 92.2119C281.822 92.0303 281.897 91.8592 282.015 91.7192C282.183 91.5104 282.376 91.3223 282.589 91.1591C282.954 90.8891 283.224 90.8014 283.265 90.8419C283.305 90.8824 283.075 91.0511 282.778 91.3548C282.605 91.5273 282.446 91.7148 282.305 91.9149C282.15 92.1376 282.096 92.3671 282.305 92.4818C282.562 92.5997 282.84 92.6662 283.123 92.6775C283.368 92.7013 283.614 92.7013 283.859 92.6775C284.278 92.637 284.534 92.5628 284.555 92.61Z" fill="#EB996E"/>
<path d="M280.752 93.2784C280.774 92.6657 280.622 92.0593 280.315 91.5285C280.008 90.9977 279.558 90.5639 279.016 90.2768C278.474 89.9897 277.861 89.8608 277.249 89.9049C276.637 89.9491 276.05 90.1644 275.555 90.5262C275.06 90.8881 274.676 91.382 274.449 91.9513C274.221 92.5206 274.158 93.1424 274.268 93.7457C274.377 94.3489 274.655 94.9091 275.068 95.3623C275.481 95.8156 276.013 96.1434 276.604 96.3085L276.571 97.2195L277.462 97.8944L276.523 98.4208L276.483 99.5613L277.374 100.236L276.436 100.763L276.402 101.741L276.942 102.146L276.375 102.463V103.037L277.05 103.806L278.401 103.003L278.658 96.2545C279.262 96.021 279.784 95.6136 280.157 95.0839C280.53 94.5541 280.737 93.9258 280.752 93.2784ZM277.57 90.7679C277.756 90.7747 277.935 90.8363 278.086 90.9449C278.236 91.0535 278.351 91.2042 278.416 91.378C278.481 91.5519 278.492 91.741 278.45 91.9215C278.407 92.1019 278.312 92.2657 278.176 92.3921C278.04 92.5184 277.869 92.6017 277.686 92.6313C277.503 92.661 277.315 92.6357 277.146 92.5587C276.977 92.4816 276.835 92.3563 276.737 92.1985C276.64 92.0407 276.591 91.8576 276.598 91.6722C276.602 91.549 276.631 91.4279 276.682 91.3157C276.733 91.2036 276.806 91.1026 276.896 91.0186C276.987 90.9346 277.093 90.8693 277.208 90.8263C277.324 90.7832 277.447 90.7634 277.57 90.7679Z" fill="#263238"/>
<path d="M277.57 90.7679C277.57 90.7679 277.489 90.7679 277.347 90.8084C277.145 90.8566 276.965 90.9705 276.834 91.1323C276.733 91.2644 276.671 91.4216 276.653 91.5869C276.636 91.7521 276.665 91.9189 276.736 92.069C276.807 92.2191 276.918 92.3466 277.058 92.4377C277.197 92.5287 277.358 92.5797 277.524 92.585C277.691 92.5903 277.855 92.5498 278 92.4679C278.144 92.386 278.264 92.2658 278.345 92.1206C278.425 91.9754 278.465 91.8108 278.458 91.6448C278.451 91.4788 278.399 91.3178 278.307 91.1796C278.189 91.0083 278.018 90.8803 277.82 90.8151C277.685 90.7747 277.597 90.7747 277.597 90.7612H277.631C277.689 90.7535 277.748 90.7535 277.807 90.7612C278.017 90.8163 278.2 90.9428 278.327 91.1188C278.423 91.2507 278.483 91.4047 278.503 91.5663C278.523 91.728 278.502 91.8921 278.442 92.0434C278.37 92.2229 278.245 92.3761 278.084 92.482C277.913 92.599 277.71 92.6581 277.503 92.6507C277.294 92.643 277.093 92.5698 276.929 92.4415C276.777 92.3185 276.665 92.1545 276.604 91.9691C276.558 91.8139 276.55 91.6498 276.582 91.491C276.614 91.3322 276.684 91.1835 276.787 91.0581C276.93 90.8927 277.125 90.7809 277.341 90.7409C277.397 90.7355 277.453 90.7355 277.51 90.7409L277.57 90.7679Z" fill="#263238"/>
<path d="M280.752 93.278V93.3455V93.5412C280.726 93.7895 280.671 94.034 280.59 94.2701C280.455 94.6517 280.248 95.0044 279.982 95.3093C279.619 95.7304 279.154 96.0511 278.631 96.2406C278.563 97.9885 278.482 100.29 278.388 102.989L277.037 103.799L276.361 103.03C276.361 102.847 276.361 102.652 276.361 102.456L276.929 102.139V102.206L276.382 101.795C276.382 101.491 276.382 101.12 276.415 100.816L277.354 100.297V100.364L276.463 99.6892V99.2775C276.463 98.9941 276.463 98.7174 276.497 98.4407L277.435 97.9143V97.9818L276.544 97.3069C276.544 96.9965 276.544 96.6928 276.578 96.3959V96.4363C276.075 96.2923 275.612 96.0336 275.227 95.6805C275.039 95.5106 274.873 95.3179 274.734 95.1069C274.397 94.6155 274.2 94.0416 274.166 93.447C274.131 92.8524 274.26 92.2596 274.538 91.7326C274.786 91.2516 275.149 90.8393 275.595 90.5326C276.042 90.2259 276.557 90.0343 277.095 89.9749C277.633 89.9154 278.178 89.9899 278.681 90.1918C279.183 90.3937 279.628 90.7167 279.975 91.132C280.263 91.4686 280.477 91.8617 280.603 92.286L280.644 92.4075V92.5289C280.644 92.6099 280.678 92.6774 280.684 92.7516C280.691 92.8259 280.718 93.0013 280.718 93.0958V93.2038C280.721 93.2262 280.721 93.2489 280.718 93.2713V92.9878C280.718 92.8934 280.718 92.7786 280.678 92.6437C280.668 92.5705 280.652 92.4983 280.63 92.4277V92.3062L280.59 92.1848C280.463 91.7669 280.249 91.3806 279.962 91.051C279.581 90.6066 279.089 90.2713 278.536 90.0792C277.952 89.8835 277.324 89.8581 276.726 90.0061C276.128 90.154 275.585 90.4692 275.159 90.9146C274.734 91.36 274.445 91.9172 274.325 92.5211C274.205 93.1249 274.26 93.7503 274.484 94.3241C274.568 94.562 274.681 94.7887 274.821 94.9989C274.959 95.2053 275.123 95.3935 275.308 95.559C275.682 95.9052 276.134 96.1573 276.625 96.2946H276.659C276.659 96.5983 276.659 96.902 276.625 97.2057L277.523 97.8805H277.57L277.516 97.9143L276.578 98.4339V98.4002C276.578 98.6769 276.578 98.9603 276.578 99.237V99.5407L277.469 100.216L277.516 100.256H277.462L276.524 100.782C276.524 101.12 276.524 101.457 276.49 101.761L277.037 102.166L277.084 102.206H277.03L276.463 102.53C276.463 102.726 276.463 102.922 276.463 103.097L277.138 103.867H277.091L278.442 103.063V103.097C278.55 100.398 278.638 98.0763 278.705 96.3486C279.21 96.1602 279.661 95.8495 280.016 95.4443C280.278 95.1412 280.484 94.7938 280.624 94.4185C280.708 94.1825 280.767 93.9382 280.799 93.6897V93.5007C280.803 93.4237 280.786 93.347 280.752 93.278Z" fill="#263238"/>
<path d="M280.414 93.0962C280.438 92.4816 280.287 91.8728 279.98 91.3397C279.673 90.8066 279.222 90.3706 278.679 90.0819C278.135 89.7931 277.521 89.6632 276.907 89.7071C276.293 89.7509 275.704 89.9667 275.207 90.3298C274.71 90.6928 274.325 91.1884 274.097 91.7598C273.869 92.3311 273.807 92.955 273.918 93.5601C274.029 94.1651 274.308 94.7268 274.723 95.1806C275.138 95.6345 275.674 95.9622 276.267 96.1263L276.233 97.0306L277.125 97.7054L276.186 98.2251L276.145 99.3656L277.037 100.04L276.098 100.56L276.057 101.539L276.605 101.95L276.03 102.267V102.834L276.706 103.604L278.057 102.801L278.313 96.052C278.917 95.8217 279.438 95.4181 279.812 94.892C280.186 94.366 280.395 93.7411 280.414 93.0962ZM277.233 90.5857C277.356 90.5901 277.477 90.6187 277.59 90.6699C277.702 90.7211 277.803 90.7939 277.887 90.8842C277.971 90.9744 278.036 91.0803 278.079 91.1959C278.123 91.3114 278.142 91.4343 278.138 91.5575C278.133 91.6807 278.104 91.8017 278.052 91.9137C278 92.0256 277.927 92.1263 277.837 92.2099C277.746 92.2936 277.64 92.3586 277.524 92.4012C277.408 92.4439 277.285 92.4633 277.162 92.4584C277.039 92.4536 276.917 92.4245 276.805 92.3728C276.693 92.3212 276.593 92.248 276.509 92.1574C276.425 92.0669 276.36 91.9607 276.317 91.8451C276.275 91.7294 276.255 91.6065 276.26 91.4833C276.271 91.2356 276.379 91.0022 276.561 90.834C276.743 90.6658 276.985 90.5766 277.233 90.5857Z" fill="#F8B500"/>
<path d="M277.233 90.5854C277.156 90.5816 277.079 90.5816 277.003 90.5854C276.803 90.634 276.624 90.748 276.496 90.9094C276.401 91.0266 276.337 91.1659 276.309 91.3146C276.282 91.4632 276.293 91.6163 276.341 91.7597C276.398 91.9355 276.508 92.0897 276.655 92.2018C276.802 92.3139 276.98 92.3786 277.165 92.3873C277.349 92.3901 277.529 92.3383 277.683 92.2386C277.837 92.1388 277.957 91.9956 278.03 91.8272C278.079 91.7098 278.102 91.5836 278.1 91.4565C278.097 91.3295 278.067 91.2044 278.013 91.0894C277.959 90.9743 277.882 90.8719 277.786 90.7886C277.69 90.7053 277.577 90.6429 277.456 90.6057C277.382 90.5839 277.308 90.5659 277.233 90.5517H277.293C277.349 90.5446 277.406 90.5446 277.462 90.5517C277.675 90.6043 277.862 90.7312 277.989 90.9094C278.136 91.1207 278.192 91.3814 278.147 91.6344C278.101 91.8873 277.957 92.1119 277.746 92.2591C277.573 92.3769 277.367 92.4361 277.158 92.4278C276.951 92.4167 276.753 92.3412 276.591 92.2118C276.458 92.1218 276.351 91.9985 276.28 91.8541C276.24 91.7252 276.227 91.5891 276.242 91.4548C276.258 91.3205 276.301 91.1909 276.37 91.0745C276.439 90.958 276.531 90.8573 276.641 90.7789C276.752 90.7005 276.877 90.646 277.01 90.6192C277.068 90.6095 277.127 90.6095 277.185 90.6192L277.233 90.5854Z" fill="#263238"/>
<path d="M280.414 93.0959V93.1634V93.3524C280.387 93.6027 280.333 93.8494 280.252 94.0879C280.111 94.4669 279.906 94.8186 279.644 95.1272C279.277 95.5439 278.813 95.8638 278.293 96.0585C278.232 97.8064 278.151 100.108 278.057 102.807L276.706 103.61L276.03 102.841C276.03 102.665 276.03 102.47 276.03 102.274L276.598 101.95V102.017L276.057 101.613C276.057 101.302 276.057 100.971 276.091 100.634L277.03 100.108V100.175L276.138 99.5003V99.1966C276.138 98.9199 276.138 98.6365 276.172 98.3598L277.111 97.8401V97.9076L276.219 97.2328C276.219 96.9291 276.219 96.6254 276.253 96.3217V96.3622C275.748 96.224 275.284 95.9645 274.902 95.6064C274.713 95.4363 274.545 95.2437 274.402 95.0327C274.261 94.8222 274.146 94.5957 274.058 94.3579C273.897 93.9417 273.822 93.4972 273.837 93.0513C273.852 92.6053 273.958 92.167 274.147 91.7628C274.336 91.3587 274.606 90.997 274.939 90.6995C275.272 90.4021 275.661 90.175 276.084 90.0321C276.777 89.8015 277.526 89.8015 278.219 90.0321C278.759 90.1773 279.254 90.4558 279.658 90.8419C279.943 91.1803 280.156 91.5728 280.286 91.9959L280.326 92.1241V92.2456C280.326 92.3198 280.36 92.3941 280.367 92.4615C280.374 92.529 280.401 92.718 280.401 92.8057V93.0959C280.402 93.0712 280.402 93.0464 280.401 93.0217V92.8125C280.401 92.718 280.401 92.6033 280.367 92.4615C280.333 92.3198 280.333 92.3266 280.32 92.2456V92.1309L280.279 92.0026C280.146 91.5858 279.93 91.2001 279.644 90.8689C279.266 90.423 278.773 90.0892 278.219 89.9038C277.54 89.674 276.804 89.674 276.125 89.9038C275.341 90.1799 274.689 90.7414 274.301 91.4763C274.089 91.8849 273.967 92.3338 273.941 92.7932C273.916 93.2526 273.988 93.7123 274.153 94.1419C274.243 94.3786 274.358 94.6049 274.497 94.8168C274.635 95.0233 274.798 95.2115 274.983 95.3769C275.359 95.722 275.81 95.974 276.301 96.1125H276.28V96.1463C276.28 96.4432 276.28 96.7469 276.28 97.0573V97.0236C276.577 97.2395 276.875 97.469 277.172 97.6984L277.226 97.7389H277.172L276.233 98.2653V98.2316C276.233 98.5082 276.233 98.7849 276.199 99.0684C276.199 99.1696 276.199 99.2708 276.199 99.3653L277.091 100.04H277.145L277.091 100.074L276.152 100.594C276.152 100.931 276.152 101.268 276.111 101.572L276.659 101.984L276.706 102.017H276.652L276.078 102.335C276.078 102.53 276.078 102.726 276.078 102.902L276.753 103.678H276.706L278.057 102.875V102.908C278.158 100.209 278.253 97.8874 278.32 96.1598C278.826 95.966 279.278 95.6535 279.637 95.2487C279.897 94.944 280.103 94.597 280.245 94.2229C280.33 93.9894 280.389 93.7472 280.421 93.5008V93.3051C280.401 93.2739 280.391 93.2381 280.389 93.2014C280.388 93.1647 280.397 93.1283 280.414 93.0959Z" fill="#263238"/>
<path d="M280.022 93.1232C280.013 92.8965 279.985 92.6709 279.941 92.4484C279.886 92.1783 279.788 91.9186 279.651 91.679C279.481 91.3595 279.252 91.0754 278.975 90.8422C278.605 90.5354 278.162 90.3285 277.689 90.241C277.217 90.1536 276.729 90.1887 276.273 90.3428C276.011 90.4233 275.763 90.544 275.537 90.7005C275.421 90.7803 275.31 90.8682 275.206 90.9637C275.102 91.0629 275.005 91.1688 274.916 91.2809C274.535 91.7552 274.317 92.3392 274.294 92.9468C274.271 93.5544 274.444 94.1534 274.787 94.6552C274.872 94.7744 274.962 94.8892 275.058 94.9993C275.155 95.1007 275.258 95.1954 275.368 95.2828C275.571 95.4541 275.799 95.593 276.044 95.6944C276.517 95.886 277.032 95.9489 277.537 95.8766C277.974 95.8166 278.391 95.6523 278.752 95.3975C279.053 95.186 279.312 94.9205 279.516 94.6147C279.666 94.3827 279.782 94.1304 279.86 93.8656C279.923 93.6444 279.968 93.4188 279.995 93.1907V93.3797C279.995 93.4404 279.995 93.5146 279.995 93.6024C279.995 93.6901 279.962 93.7846 279.928 93.8993C279.854 94.1702 279.738 94.4277 279.583 94.6619C279.382 94.9758 279.123 95.2483 278.82 95.465C278.451 95.7275 278.025 95.8987 277.577 95.9644C277.062 96.0419 276.535 95.9813 276.051 95.7889C275.789 95.6856 275.545 95.5422 275.328 95.3638C275.215 95.2725 275.107 95.1757 275.004 95.0736C274.904 94.9642 274.814 94.8468 274.733 94.7226C274.381 94.2102 274.204 93.5982 274.227 92.9772C274.25 92.3562 274.473 91.7591 274.862 91.2741C274.954 91.1576 275.053 91.0472 275.159 90.9434C275.267 90.8478 275.383 90.7599 275.503 90.6803C275.833 90.4512 276.208 90.2943 276.602 90.2198C276.997 90.1454 277.403 90.1551 277.793 90.2483C278.236 90.3459 278.649 90.5498 278.996 90.8422C279.273 91.0825 279.502 91.3733 279.671 91.6993C279.802 91.9454 279.898 92.209 279.955 92.4821C279.976 92.5821 279.99 92.6837 279.995 92.7858C280.001 92.8599 280.001 92.9344 279.995 93.0085V93.1907L280.022 93.1232Z" fill="#263238"/>
<path d="M278.307 91.5709C278.298 91.4824 278.285 91.3946 278.266 91.3077C278.216 91.0689 278.081 90.8559 277.888 90.707C277.758 90.6022 277.605 90.5283 277.442 90.4911C277.255 90.4521 277.062 90.4638 276.881 90.5248C276.679 90.5851 276.502 90.708 276.375 90.8758C276.236 91.051 276.158 91.2665 276.152 91.4899C276.143 91.71 276.203 91.9273 276.324 92.1113C276.446 92.2954 276.621 92.4368 276.827 92.5157C276.993 92.5817 277.173 92.6064 277.351 92.5876C277.528 92.5688 277.699 92.507 277.847 92.4077C278.047 92.2687 278.195 92.0667 278.266 91.8341C278.292 91.7478 278.313 91.6599 278.327 91.5709C278.327 91.5709 278.327 91.5709 278.327 91.6451C278.322 91.7135 278.311 91.7814 278.293 91.8476C278.228 92.0921 278.08 92.3066 277.874 92.4549C277.73 92.5576 277.563 92.6247 277.388 92.6506C277.177 92.6838 276.961 92.6564 276.765 92.5715C276.568 92.4867 276.4 92.348 276.28 92.1715C276.142 91.9739 276.071 91.7374 276.078 91.4966C276.087 91.2509 276.175 91.0146 276.327 90.8218C276.468 90.6453 276.659 90.5158 276.875 90.4506C277.071 90.3934 277.279 90.3934 277.476 90.4506C277.646 90.4909 277.806 90.5694 277.942 90.68C278.144 90.8521 278.276 91.0922 278.313 91.3549C278.322 91.4221 278.322 91.4902 278.313 91.5574C278.307 91.5506 278.307 91.5709 278.307 91.5709Z" fill="#263238"/>
<path d="M277.631 102.956C277.631 102.956 277.631 101.41 277.719 99.514C277.807 97.6177 277.868 96.0723 277.888 96.0723C277.908 96.0723 277.888 97.6109 277.8 99.514C277.712 101.417 277.631 102.956 277.631 102.956Z" fill="#263238"/>
<path d="M277.516 90.9096C277.448 90.943 277.373 90.9604 277.297 90.9604C277.221 90.9604 277.146 90.943 277.077 90.9096V86.7593L277.516 86.793V90.9096Z" fill="#E0E0E0"/>
<path d="M277.293 90.9769C277.216 90.9751 277.14 90.9567 277.071 90.923V86.7456L277.543 86.7794V90.923C277.466 90.9604 277.38 90.9789 277.293 90.9769ZM277.098 90.896C277.16 90.9259 277.228 90.9414 277.297 90.9414C277.366 90.9414 277.434 90.9259 277.496 90.896V86.8064H277.091L277.098 90.896Z" fill="#263238"/>
<path d="M275.605 84.7212C275.973 85.0353 276.363 85.3218 276.773 85.5783C276.978 85.7108 277.149 85.8888 277.273 86.0984C277.397 86.308 277.471 86.5434 277.489 86.7863C277.454 87.0339 277.356 87.2685 277.204 87.468C277.053 87.6675 276.854 87.8253 276.625 87.9268C276.312 88.0949 275.969 88.1998 275.616 88.2355C275.263 88.2712 274.906 88.237 274.566 88.1348C274.226 88.0327 273.909 87.8646 273.634 87.6401C273.36 87.4157 273.132 87.1393 272.964 86.8267" fill="#FFBE9D"/>
<path d="M272.991 86.8266C273.273 87.1265 273.58 87.4019 273.909 87.6499C274.275 87.8826 274.693 88.0217 275.125 88.0548C275.651 88.0945 276.177 87.9796 276.638 87.7242C276.86 87.6245 277.045 87.4573 277.167 87.2465C277.288 87.0356 277.339 86.7918 277.314 86.5499C277.179 86.1499 276.915 85.8058 276.564 85.5714C275.922 85.1395 275.564 84.7615 275.618 84.7211C275.672 84.6806 276.017 84.9708 276.706 85.3622C277.137 85.6018 277.466 85.9906 277.631 86.4554C277.702 86.7639 277.652 87.0878 277.489 87.3597C277.324 87.6375 277.092 87.8695 276.814 88.0346C276.288 88.3292 275.684 88.4519 275.085 88.3855C274.595 88.334 274.129 88.1522 273.734 87.8591C273.106 87.353 272.957 86.8334 272.991 86.8266Z" fill="#EB996E"/>
<path d="M279.766 83.0005C278.981 83.911 278.301 84.9071 277.739 85.9698C277.559 86.2954 277.455 86.6577 277.435 87.0293C277.427 87.2162 277.469 87.4018 277.555 87.5677C277.642 87.7335 277.77 87.8737 277.928 87.9741C278.073 88.0426 278.231 88.0781 278.391 88.0781C278.551 88.0781 278.709 88.0426 278.854 87.9741C279.139 87.835 279.399 87.6504 279.624 87.4275C280.552 86.5816 281.394 85.6457 282.137 84.6336C282.33 84.3983 282.481 84.1311 282.582 83.844C282.636 83.7011 282.659 83.5486 282.65 83.3962C282.64 83.2439 282.599 83.0953 282.528 82.96" fill="#FFBE9D"/>
<path d="M282.535 82.9531C282.535 82.9531 282.704 83.0881 282.724 83.4525C282.703 83.9531 282.507 84.4304 282.17 84.8022C281.761 85.3877 281.31 85.9425 280.819 86.4624C280.549 86.7593 280.252 87.063 279.935 87.3599C279.614 87.7122 279.223 87.9928 278.786 88.1833C278.534 88.2643 278.262 88.2643 278.01 88.1833C277.753 88.0987 277.539 87.917 277.415 87.6771C277.32 87.4648 277.271 87.2348 277.271 87.0023C277.271 86.7697 277.32 86.5397 277.415 86.3274C277.696 85.6616 278.059 85.0336 278.496 84.458C278.86 83.9134 279.291 83.4168 279.779 82.9801C279.455 83.5439 279.097 84.0871 278.705 84.6065C278.313 85.1777 277.987 85.7912 277.733 86.4354C277.656 86.6039 277.616 86.7868 277.616 86.9719C277.616 87.157 277.656 87.3399 277.733 87.5084C277.825 87.6684 277.974 87.7886 278.149 87.8459C278.325 87.9032 278.516 87.8935 278.685 87.8188C279.068 87.6436 279.413 87.3935 279.698 87.0832C280.016 86.793 280.313 86.5029 280.583 86.2194C281.13 85.6458 281.59 85.1059 281.934 84.6335C282.257 84.3046 282.474 83.886 282.555 83.4323C282.564 83.2723 282.557 83.1119 282.535 82.9531Z" fill="#EB996E"/>
<path d="M293.167 299.824C293.167 299.926 227.532 300 146.59 300C65.6487 300 0.0134277 299.926 0.0134277 299.824C0.0134277 299.723 65.6352 299.649 146.59 299.649C227.545 299.649 293.167 299.71 293.167 299.824Z" fill="#263238"/>
<path d="M131.84 118.14C130.547 118.14 129.353 117.84 128.26 117.24C127.18 116.627 126.32 115.78 125.68 114.7C125.053 113.607 124.74 112.38 124.74 111.02C124.74 109.66 125.053 108.44 125.68 107.36C126.32 106.28 127.18 105.44 128.26 104.84C129.353 104.227 130.547 103.92 131.84 103.92C133.147 103.92 134.34 104.227 135.42 104.84C136.513 105.44 137.373 106.28 138 107.36C138.627 108.44 138.94 109.66 138.94 111.02C138.94 112.38 138.627 113.607 138 114.7C137.373 115.78 136.513 116.627 135.42 117.24C134.34 117.84 133.147 118.14 131.84 118.14ZM131.84 116.16C132.76 116.16 133.58 115.953 134.3 115.54C135.02 115.113 135.58 114.513 135.98 113.74C136.393 112.953 136.6 112.047 136.6 111.02C136.6 109.993 136.393 109.093 135.98 108.32C135.58 107.547 135.02 106.953 134.3 106.54C133.58 106.127 132.76 105.92 131.84 105.92C130.92 105.92 130.1 106.127 129.38 106.54C128.66 106.953 128.093 107.547 127.68 108.32C127.28 109.093 127.08 109.993 127.08 111.02C127.08 112.047 127.28 112.953 127.68 113.74C128.093 114.513 128.66 115.113 129.38 115.54C130.1 115.953 130.92 116.16 131.84 116.16ZM149.964 104.1V105.96H146.264V118H143.984V105.96H140.264V104.1H149.964ZM161.793 108.24C161.793 108.947 161.626 109.613 161.293 110.24C160.959 110.867 160.426 111.38 159.693 111.78C158.959 112.167 158.019 112.36 156.873 112.36H154.353V118H152.073V104.1H156.873C157.939 104.1 158.839 104.287 159.573 104.66C160.319 105.02 160.873 105.513 161.233 106.14C161.606 106.767 161.793 107.467 161.793 108.24ZM156.873 110.5C157.739 110.5 158.386 110.307 158.813 109.92C159.239 109.52 159.453 108.96 159.453 108.24C159.453 106.72 158.593 105.96 156.873 105.96H154.353V110.5H156.873Z" fill="black"/>
</svg>
