<svg width="20" height="20" viewBox="0 0 20 20" fill="none" xmlns="http://www.w3.org/2000/svg">
<path fill-rule="evenodd" clip-rule="evenodd" d="M10 12.4998C11.8409 12.4998 13.3333 11.0075 13.3333 9.1665C13.3333 7.32555 11.8409 5.83317 10 5.83317C8.15905 5.83317 6.66667 7.32555 6.66667 9.1665C6.66667 11.0075 8.15905 12.4998 10 12.4998ZM10 10.8332C9.07953 10.8332 8.33333 10.087 8.33333 9.1665C8.33333 8.24603 9.07953 7.49984 10 7.49984C10.9205 7.49984 11.6667 8.24603 11.6667 9.1665C11.6667 10.087 10.9205 10.8332 10 10.8332Z" fill="#0E854E"/>
<path fill-rule="evenodd" clip-rule="evenodd" d="M2.5 9.05822C2.5 4.97281 5.86089 1.6665 10 1.6665C14.1391 1.6665 17.5 4.97281 17.5 9.05822C17.5 11.0762 16.6745 12.9662 15.2459 14.3409L10.5844 18.9272C10.2602 19.2463 9.7399 19.2463 9.41559 18.9272L4.74779 14.3352C3.32037 12.9547 2.5 11.07 2.5 9.05822ZM14.0836 13.1464C15.1964 12.0756 15.8333 10.6172 15.8333 9.05822C15.8333 5.89944 13.2247 3.33317 10 3.33317C6.77531 3.33317 4.16667 5.89944 4.16667 9.05822C4.16667 10.6125 4.7997 12.0668 5.91152 13.1421L9.99997 17.1642L14.0836 13.1464Z" fill="#0E854E"/>
</svg>
