<svg width="16" height="16" viewBox="0 0 16 16" fill="none" xmlns="http://www.w3.org/2000/svg">
<path d="M8 13.3333C8.31111 13.3333 8.57393 13.2258 8.78844 13.0107C9.00356 12.7961 9.11111 12.5333 9.11111 12.2222C9.11111 11.9111 9.00356 11.6483 8.78844 11.4338C8.57393 11.2187 8.31111 11.1111 8 11.1111C7.68889 11.1111 7.42607 11.2187 7.21156 11.4338C6.99644 11.6483 6.88889 11.9111 6.88889 12.2222C6.88889 12.5333 6.99644 12.7961 7.21156 13.0107C7.42607 13.2258 7.68889 13.3333 8 13.3333ZM7.2 9.91111H8.84444C8.84444 9.37778 8.9037 8.98518 9.02222 8.73333C9.14074 8.48148 9.39259 8.16296 9.77778 7.77778C10.2963 7.25926 10.6631 6.82578 10.8782 6.47733C11.0927 6.12948 11.2 5.73333 11.2 5.28889C11.2 4.5037 10.9333 3.87022 10.4 3.38844C9.86667 2.90726 9.14815 2.66667 8.24444 2.66667C7.42963 2.66667 6.73719 2.86667 6.16711 3.26667C5.59644 3.66667 5.2 4.22222 4.97778 4.93333L6.44444 5.51111C6.54815 5.11111 6.75556 4.78874 7.06667 4.544C7.37778 4.29985 7.74074 4.17778 8.15556 4.17778C8.55556 4.17778 8.88889 4.28504 9.15556 4.49956C9.42222 4.71467 9.55556 5 9.55556 5.35556C9.55556 5.60741 9.47407 5.87407 9.31111 6.15556C9.14815 6.43704 8.87407 6.74815 8.48889 7.08889C8 7.51852 7.66311 7.92948 7.47822 8.32178C7.29274 8.71467 7.2 9.24444 7.2 9.91111ZM1.77778 16C1.28889 16 0.870222 15.8261 0.521778 15.4782C0.173926 15.1298 0 14.7111 0 14.2222V1.77778C0 1.28889 0.173926 0.870222 0.521778 0.521778C0.870222 0.173926 1.28889 0 1.77778 0H14.2222C14.7111 0 15.1298 0.173926 15.4782 0.521778C15.8261 0.870222 16 1.28889 16 1.77778V14.2222C16 14.7111 15.8261 15.1298 15.4782 15.4782C15.1298 15.8261 14.7111 16 14.2222 16H1.77778Z" fill="currentColor"/>
</svg>
