<svg width="20" height="20" viewBox="0 0 20 20" fill="none" xmlns="http://www.w3.org/2000/svg">
<path fill-rule="evenodd" clip-rule="evenodd" d="M10.8333 8.33317H12.5C12.9602 8.33317 13.3333 8.70627 13.3333 9.1665C13.3333 9.62674 12.9602 9.99984 12.5 9.99984H10.8333V11.6665C10.8333 12.1267 10.4602 12.4998 10 12.4998C9.53977 12.4998 9.16668 12.1267 9.16668 11.6665V9.99984H7.50001C7.03977 9.99984 6.66668 9.62674 6.66668 9.1665C6.66668 8.70627 7.03977 8.33317 7.50001 8.33317H9.16668V6.6665C9.16668 6.20627 9.53977 5.83317 10 5.83317C10.4602 5.83317 10.8333 6.20627 10.8333 6.6665V8.33317ZM8.08012 17.5497L2.52544 11.8272C0.26931 9.50292 0.26931 5.74447 2.52544 3.42018C4.55192 1.33248 7.72342 1.10265 10 2.76359C12.2766 1.10265 15.4481 1.33248 17.4746 3.42018C19.7307 5.74447 19.7307 9.50292 17.4746 11.8272L11.9199 17.5497C11.4081 18.0769 10.7135 18.354 10 18.332C9.28649 18.354 8.59189 18.0769 8.08012 17.5497ZM9.9619 16.6656H10.0381C10.2912 16.6772 10.5375 16.581 10.724 16.3889L16.2787 10.6664C17.9071 8.9887 17.9071 6.25869 16.2787 4.58102C14.7114 2.96638 12.1987 2.91398 10.5724 4.45119C10.2512 4.75482 9.7488 4.75482 9.42758 4.45119C7.80127 2.91398 5.28866 2.96638 3.72136 4.58102C2.09289 6.25869 2.09289 8.9887 3.72136 10.6664L9.27603 16.3889C9.46252 16.581 9.70881 16.6772 9.9619 16.6656Z" fill="#0E854E"/>
</svg>
