<svg width="22" height="21" viewBox="0 0 22 21" fill="none" xmlns="http://www.w3.org/2000/svg">
<path d="M11.2524 17.3478C11.0284 17.211 10.7466 17.211 10.5226 17.3478L4.97618 20.7353C4.44482 21.0599 3.78597 20.5812 3.93042 19.9756L5.43831 13.6534C5.49921 13.3981 5.41214 13.1301 5.21279 12.9594L0.27828 8.73247C-0.194613 8.32739 0.0570841 7.55281 0.677764 7.50308L7.15501 6.98415C7.41669 6.96318 7.64464 6.79757 7.74545 6.55518L10.2412 0.554133C10.4803 -0.0208032 11.2947 -0.0208027 11.5338 0.554134L14.0296 6.55518C14.1304 6.79757 14.3583 6.96318 14.62 6.98414L21.0982 7.50308C21.7189 7.5528 21.9706 8.32746 21.4977 8.73251L16.5623 12.9594C16.3629 13.1301 16.2758 13.3981 16.3367 13.6534L17.8446 19.9756C17.989 20.5812 17.3302 21.0599 16.7988 20.7353L11.2524 17.3478Z" fill="#F8B500"/>
</svg>
