<svg width="20" height="20" viewBox="0 0 20 20" fill="none" xmlns="http://www.w3.org/2000/svg">
<path fill-rule="evenodd" clip-rule="evenodd" d="M14.1667 5H16.6667C18.0474 5 19.1667 6.11929 19.1667 7.5V15.8333C19.1667 17.214 18.0474 18.3333 16.6667 18.3333H3.33334C1.95263 18.3333 0.833344 17.214 0.833344 15.8333V7.5C0.833344 6.11929 1.95263 5 3.33334 5H5.83334C5.83334 3.61929 6.95263 2.5 8.33334 2.5H11.6667C13.0474 2.5 14.1667 3.61929 14.1667 5ZM5.41668 6.66667V16.6667H14.5833V6.66667H5.41668ZM16.25 6.66667V16.6667H16.6667C17.1269 16.6667 17.5 16.2936 17.5 15.8333V7.5C17.5 7.03976 17.1269 6.66667 16.6667 6.66667H16.25ZM3.33334 6.66667H3.75001V16.6667H3.33334C2.87311 16.6667 2.50001 16.2936 2.50001 15.8333V7.5C2.50001 7.03976 2.87311 6.66667 3.33334 6.66667ZM12.5 5C12.5 4.53976 12.1269 4.16667 11.6667 4.16667H8.33334C7.87311 4.16667 7.50001 4.53976 7.50001 5H12.5Z" fill="#0E854E"/>
</svg>
